<svg width="50" height="71" viewBox="0 0 50 71" fill="none" xmlns="http://www.w3.org/2000/svg">
<path d="M45.128 12.632V13.632H46.128V12.632H45.128ZM14.024 12.632V11.632H13.024V12.632H14.024ZM14.024 29.048H13.024V31.8776L14.8019 29.6763L14.024 29.048ZM19.784 25.016L20.1636 25.9412L20.1736 25.937L20.1836 25.9327L19.784 25.016ZM47.432 35.384L46.5094 35.7698L46.512 35.7759L47.432 35.384ZM43.304 64.28L42.5764 63.594L42.5712 63.5995L43.304 64.28ZM7.976 65.528L7.3336 66.2944H7.3336L7.976 65.528ZM0.584001 51.224V50.224H-0.5186L-0.411249 51.3214L0.584001 51.224ZM13.64 51.224L14.6156 51.0045L14.44 50.224H13.64V51.224ZM17.48 57.368L16.8678 58.1587L16.8739 58.1634L16.88 58.168L17.48 57.368ZM33.8 56.12L34.5768 56.7498L33.8 56.12ZM33.704 37.688L32.9641 38.3607L32.9747 38.3724L32.9858 38.3838L33.704 37.688ZM14.6 41.912V42.912H15.3143L15.5459 42.2363L14.6 41.912ZM1.736 41.912H0.736001V42.912H1.736V41.912ZM1.736 0.823999V-0.176001H0.736001V0.823999H1.736ZM45.128 0.823999H46.128V-0.176001H45.128V0.823999ZM45.128 11.632H14.024V13.632H45.128V11.632ZM13.024 12.632V29.048H15.024V12.632H13.024ZM14.8019 29.6763C16.0161 28.1731 17.7833 26.9177 20.1636 25.9412L19.4044 24.0908C16.7927 25.1623 14.7199 26.5949 13.2461 28.4197L14.8019 29.6763ZM20.1836 25.9327C22.5492 24.9015 25.0687 24.384 27.752 24.384V22.384C24.8033 22.384 22.0108 22.9545 19.3844 24.0993L20.1836 25.9327ZM27.752 24.384C32.7289 24.384 36.7074 25.4721 39.7622 27.5685L40.8938 25.9195C37.4206 23.5359 33.0151 22.384 27.752 22.384V24.384ZM39.7622 27.5685C42.8738 29.704 45.1145 32.4342 46.5094 35.7698L48.3546 34.9982C46.8055 31.2938 44.3102 28.264 40.8938 25.9195L39.7622 27.5685ZM46.512 35.7759C47.9283 39.1011 48.64 42.679 48.64 46.52H50.64C50.64 42.425 49.8797 38.5789 48.352 34.9921L46.512 35.7759ZM48.64 46.52C48.64 53.6779 46.5922 59.3348 42.5764 63.594L44.0316 64.966C48.4638 60.2652 50.64 54.0821 50.64 46.52H48.64ZM42.5712 63.5995C38.6482 67.8244 32.9928 70 25.448 70V72C33.3912 72 39.6399 69.6956 44.0368 64.9604L42.5712 63.5995ZM25.448 70C18.3187 70 12.7442 68.22 8.6184 64.7616L7.3336 66.2944C11.9118 70.132 17.9853 72 25.448 72V70ZM8.6184 64.7616C4.4762 61.2895 2.13094 56.7662 1.57925 51.1266L-0.411249 51.3214C0.18906 57.4578 2.7718 62.4705 7.3336 66.2944L8.6184 64.7616ZM0.584001 52.224H13.64V50.224H0.584001V52.224ZM12.6644 51.4435C13.2889 54.2191 14.691 56.4735 16.8678 58.1587L18.0922 56.5773C16.301 55.1905 15.1431 53.3489 14.6156 51.0045L12.6644 51.4435ZM16.88 58.168C19.1371 59.8608 21.9534 60.672 25.256 60.672V58.672C22.2866 58.672 19.9189 57.9472 18.08 56.568L16.88 58.168ZM25.256 60.672C29.2546 60.672 32.4222 59.4071 34.5768 56.7498L33.0232 55.4902C31.3378 57.5689 28.8094 58.672 25.256 58.672V60.672ZM34.5768 56.7498C36.6776 54.1587 37.68 50.7799 37.68 46.712H35.68C35.68 50.4521 34.7624 53.3453 33.0232 55.4902L34.5768 56.7498ZM37.68 46.712C37.68 42.5872 36.6478 39.2895 34.4222 36.9922L32.9858 38.3838C34.7282 40.1825 35.68 42.9008 35.68 46.712H37.68ZM34.4439 37.0153C32.2784 34.6332 29.122 33.52 25.16 33.52V35.52C28.75 35.52 31.2896 36.5188 32.9641 38.3607L34.4439 37.0153ZM25.16 33.52C22.3001 33.52 19.8376 34.2378 17.84 35.736L19.04 37.336C20.6264 36.1462 22.6439 35.52 25.16 35.52V33.52ZM17.84 35.736C15.8782 37.2073 14.4832 39.1695 13.6541 41.5877L15.5459 42.2363C16.2528 40.1745 17.4178 38.5527 19.04 37.336L17.84 35.736ZM14.6 40.912H1.736V42.912H14.6V40.912ZM2.736 41.912V0.823999H0.736001V41.912H2.736ZM1.736 1.824H45.128V-0.176001H1.736V1.824ZM44.128 0.823999V12.632H46.128V0.823999H44.128Z" fill="url(#paint0_linear_229_17062)"/>
<defs>
<linearGradient id="paint0_linear_229_17062" x1="76.4557" y1="-20" x2="-22.0924" y2="-5.97144" gradientUnits="userSpaceOnUse">
<stop stop-color="#BB44F0"/>
<stop offset="0.450755" stop-color="#F974CC"/>
<stop offset="1" stop-color="#FFC9BB"/>
</linearGradient>
</defs>
</svg>
