<svg width="131" height="27" viewBox="0 0 131 27" fill="none" xmlns="http://www.w3.org/2000/svg">
<path d="M9.54332 6.90909H11.9148V15.4616C11.9148 16.3991 11.6932 17.2237 11.25 17.9354C10.8111 18.647 10.1932 19.2031 9.39631 19.6037C8.59943 20 7.66832 20.1982 6.60298 20.1982C5.53338 20.1982 4.60014 20 3.80327 19.6037C3.00639 19.2031 2.38849 18.647 1.94957 17.9354C1.51065 17.2237 1.29119 16.3991 1.29119 15.4616V6.90909H3.66264V15.2635C3.66264 15.8089 3.78196 16.2947 4.0206 16.7209C4.26349 17.147 4.6044 17.4815 5.04332 17.7244C5.48224 17.9631 6.00213 18.0824 6.60298 18.0824C7.20384 18.0824 7.72372 17.9631 8.16264 17.7244C8.60582 17.4815 8.94673 17.147 9.18537 16.7209C9.42401 16.2947 9.54332 15.8089 9.54332 15.2635V6.90909ZM16.8638 6.90909V20H14.4924V6.90909H16.8638ZM23.8967 20V6.90909H28.908C29.854 6.90909 30.6403 7.05824 31.2667 7.35653C31.8974 7.65057 32.3683 8.05327 32.6793 8.56463C32.9947 9.07599 33.1523 9.65554 33.1523 10.3033C33.1523 10.8359 33.0501 11.2919 32.8455 11.6712C32.641 12.0462 32.3661 12.3509 32.021 12.5852C31.6758 12.8196 31.2901 12.9879 30.864 13.0902V13.218C31.3285 13.2436 31.7738 13.3864 32.1999 13.6463C32.6303 13.902 32.9819 14.2642 33.2546 14.733C33.5273 15.2017 33.6637 15.7685 33.6637 16.4332C33.6637 17.1108 33.4996 17.7202 33.1715 18.2614C32.8434 18.7983 32.3491 19.2223 31.6886 19.5334C31.0281 19.8445 30.1971 20 29.1957 20H23.8967ZM26.2681 18.0185H28.8185C29.6793 18.0185 30.2994 17.8544 30.6786 17.5263C31.0621 17.1939 31.2539 16.7678 31.2539 16.2479C31.2539 15.8601 31.158 15.5107 30.9663 15.1996C30.7745 14.8842 30.5018 14.6371 30.1481 14.4581C29.7944 14.2749 29.3725 14.1832 28.8825 14.1832H26.2681V18.0185ZM26.2681 12.4766H28.614C29.0231 12.4766 29.3917 12.402 29.7198 12.2528C30.0479 12.0994 30.3058 11.8842 30.4933 11.6072C30.685 11.326 30.7809 10.9936 30.7809 10.6101C30.7809 10.103 30.6019 9.68537 30.244 9.35724C29.8903 9.02912 29.364 8.86506 28.6651 8.86506H26.2681V12.4766ZM47.4242 13.4545C47.4242 14.8651 47.16 16.0732 46.6316 17.0788C46.1074 18.0803 45.3915 18.8473 44.4838 19.38C43.5804 19.9126 42.5556 20.179 41.4093 20.179C40.263 20.179 39.236 19.9126 38.3283 19.38C37.4249 18.843 36.709 18.0739 36.1806 17.0724C35.6564 16.0668 35.3944 14.8608 35.3944 13.4545C35.3944 12.044 35.6564 10.8381 36.1806 9.83665C36.709 8.83097 37.4249 8.06179 38.3283 7.52912C39.236 6.99645 40.263 6.73011 41.4093 6.73011C42.5556 6.73011 43.5804 6.99645 44.4838 7.52912C45.3915 8.06179 46.1074 8.83097 46.6316 9.83665C47.16 10.8381 47.4242 12.044 47.4242 13.4545ZM45.04 13.4545C45.04 12.4616 44.8844 11.6243 44.5733 10.9425C44.2665 10.2564 43.8404 9.73864 43.2949 9.3892C42.7495 9.03551 42.1209 8.85866 41.4093 8.85866C40.6976 8.85866 40.0691 9.03551 39.5236 9.3892C38.9782 9.73864 38.5499 10.2564 38.2388 10.9425C37.932 11.6243 37.7786 12.4616 37.7786 13.4545C37.7786 14.4474 37.932 15.2869 38.2388 15.973C38.5499 16.6548 38.9782 17.1726 39.5236 17.5263C40.0691 17.8757 40.6976 18.0504 41.4093 18.0504C42.1209 18.0504 42.7495 17.8757 43.2949 17.5263C43.8404 17.1726 44.2665 16.6548 44.5733 15.973C44.8844 15.2869 45.04 14.4474 45.04 13.4545ZM61.3636 13.4545C61.3636 14.8651 61.0994 16.0732 60.571 17.0788C60.0469 18.0803 59.331 18.8473 58.4233 19.38C57.5199 19.9126 56.495 20.179 55.3487 20.179C54.2024 20.179 53.1754 19.9126 52.2678 19.38C51.3643 18.843 50.6484 18.0739 50.12 17.0724C49.5959 16.0668 49.3338 14.8608 49.3338 13.4545C49.3338 12.044 49.5959 10.8381 50.12 9.83665C50.6484 8.83097 51.3643 8.06179 52.2678 7.52912C53.1754 6.99645 54.2024 6.73011 55.3487 6.73011C56.495 6.73011 57.5199 6.99645 58.4233 7.52912C59.331 8.06179 60.0469 8.83097 60.571 9.83665C61.0994 10.8381 61.3636 12.044 61.3636 13.4545ZM58.9794 13.4545C58.9794 12.4616 58.8239 11.6243 58.5128 10.9425C58.206 10.2564 57.7798 9.73864 57.2344 9.3892C56.6889 9.03551 56.0604 8.85866 55.3487 8.85866C54.6371 8.85866 54.0085 9.03551 53.4631 9.3892C52.9176 9.73864 52.4893 10.2564 52.1783 10.9425C51.8714 11.6243 51.718 12.4616 51.718 13.4545C51.718 14.4474 51.8714 15.2869 52.1783 15.973C52.4893 16.6548 52.9176 17.1726 53.4631 17.5263C54.0085 17.8757 54.6371 18.0504 55.3487 18.0504C56.0604 18.0504 56.6889 17.8757 57.2344 17.5263C57.7798 17.1726 58.206 16.6548 58.5128 15.973C58.8239 15.2869 58.9794 14.4474 58.9794 13.4545ZM70.72 10.5078C70.6603 9.94957 70.4089 9.51491 69.9657 9.20384C69.5268 8.89276 68.9558 8.73722 68.2527 8.73722C67.7583 8.73722 67.3343 8.81179 66.9806 8.96094C66.627 9.11008 66.3564 9.3125 66.1689 9.56818C65.9814 9.82386 65.8855 10.1158 65.8812 10.4439C65.8812 10.7166 65.943 10.9531 66.0666 11.1534C66.1944 11.3537 66.367 11.5241 66.5843 11.6648C66.8017 11.8011 67.0424 11.9162 67.3066 12.0099C67.5708 12.1037 67.8372 12.1825 68.1056 12.2464L69.3329 12.5533C69.8272 12.6683 70.3024 12.8239 70.7583 13.0199C71.2186 13.2159 71.6298 13.4631 71.992 13.7614C72.3585 14.0597 72.6483 14.4197 72.8613 14.8416C73.0744 15.2635 73.1809 15.7578 73.1809 16.3246C73.1809 17.0916 72.9849 17.767 72.5929 18.3509C72.2008 18.9304 71.6341 19.3842 70.8926 19.7124C70.1554 20.0362 69.2626 20.1982 68.2143 20.1982C67.1958 20.1982 66.3116 20.0405 65.5616 19.7251C64.8159 19.4098 64.2321 18.9496 63.8102 18.3445C63.3926 17.7393 63.1667 17.0021 63.1326 16.1328H65.4657C65.4998 16.5888 65.6404 16.968 65.8876 17.2706C66.1348 17.5732 66.4565 17.799 66.8528 17.9482C67.2534 18.0973 67.7008 18.1719 68.1951 18.1719C68.7108 18.1719 69.1625 18.0952 69.5502 17.9418C69.9423 17.7841 70.2491 17.5668 70.4707 17.2898C70.6923 17.0085 70.8052 16.6804 70.8095 16.3054C70.8052 15.9645 70.7051 15.6832 70.5091 15.4616C70.313 15.2358 70.0382 15.0483 69.6845 14.8991C69.335 14.7457 68.926 14.6094 68.4572 14.4901L66.9679 14.1065C65.8897 13.8295 65.0375 13.4098 64.411 12.8473C63.7889 12.2805 63.4778 11.5284 63.4778 10.5909C63.4778 9.8196 63.6866 9.14418 64.1042 8.56463C64.5261 7.98509 65.0993 7.53551 65.8237 7.21591C66.5481 6.89204 67.3684 6.73011 68.2846 6.73011C69.2136 6.73011 70.0275 6.89204 70.7264 7.21591C71.4295 7.53551 71.9814 7.98082 72.3819 8.55185C72.7825 9.11861 72.9892 9.7706 73.002 10.5078H70.72ZM74.7198 8.89702V6.90909H85.1644V8.89702H81.1183V20H78.766V8.89702H74.7198Z" fill="white"/>
<circle cx="111.5" cy="13.5" r="9.5" fill="transparent"/>
<circle cx="111.5" cy="13.5" r="9.5" fill="#17161C"/>
<path fill-rule="evenodd" clip-rule="evenodd" d="M110.983 8.13708H112.128C112.272 10.6861 114.314 12.7277 116.863 12.8716V14.0171C114.314 14.161 112.272 16.2027 112.128 18.7518H110.983C110.839 16.2027 108.797 14.161 106.248 14.0171V12.8716C108.797 12.7277 110.839 10.6861 110.983 8.13708Z" fill="#EE56BB"/>
</svg>
