<svg width="155" height="49" viewBox="0 0 155 49" fill="none" xmlns="http://www.w3.org/2000/svg">
<rect width="154.895" height="49" rx="6.88421" fill="white"/>
<path d="M58.9195 18.1379H56.6909V11.2537H58.9901C59.6646 11.2537 60.2439 11.3915 60.728 11.6672C61.212 11.9406 61.5829 12.3339 61.8406 12.847C62.1006 13.358 62.2305 13.9709 62.2305 14.6857C62.2305 15.4029 62.0994 16.0191 61.8372 16.5345C61.5773 17.05 61.2008 17.4466 60.7078 17.7245C60.2148 18.0001 59.6187 18.1379 58.9195 18.1379ZM57.7296 17.2304H58.8624C59.3868 17.2304 59.8226 17.1318 60.17 16.9345C60.5173 16.7351 60.7773 16.4471 60.9498 16.0707C61.1224 15.6919 61.2087 15.2303 61.2087 14.6857C61.2087 14.1457 61.1224 13.6874 60.9498 13.3109C60.7795 12.9344 60.5252 12.6487 60.1868 12.4538C59.8484 12.2588 59.4282 12.1613 58.9262 12.1613H57.7296V17.2304ZM65.6163 18.2421C65.1323 18.2421 64.7099 18.1312 64.3491 17.9094C63.9883 17.6875 63.7082 17.3771 63.5087 16.9782C63.3093 16.5794 63.2095 16.1132 63.2095 15.5799C63.2095 15.0443 63.3093 14.5759 63.5087 14.1748C63.7082 13.7737 63.9883 13.4622 64.3491 13.2403C64.7099 13.0185 65.1323 12.9076 65.6163 12.9076C66.1004 12.9076 66.5228 13.0185 66.8836 13.2403C67.2444 13.4622 67.5245 13.7737 67.7239 14.1748C67.9234 14.5759 68.0231 15.0443 68.0231 15.5799C68.0231 16.1132 67.9234 16.5794 67.7239 16.9782C67.5245 17.3771 67.2444 17.6875 66.8836 17.9094C66.5228 18.1312 66.1004 18.2421 65.6163 18.2421ZM65.6197 17.3984C65.9334 17.3984 66.1934 17.3155 66.3995 17.1497C66.6057 16.9838 66.7581 16.7631 66.8567 16.4875C66.9575 16.2118 67.008 15.9082 67.008 15.5765C67.008 15.2471 66.9575 14.9446 66.8567 14.6689C66.7581 14.3911 66.6057 14.1681 66.3995 14C66.1934 13.8319 65.9334 13.7479 65.6197 13.7479C65.3037 13.7479 65.0415 13.8319 64.8331 14C64.627 14.1681 64.4734 14.3911 64.3726 14.6689C64.274 14.9446 64.2247 15.2471 64.2247 15.5765C64.2247 15.9082 64.274 16.2118 64.3726 16.4875C64.4734 16.7631 64.627 16.9838 64.8331 17.1497C65.0415 17.3155 65.3037 17.3984 65.6197 17.3984ZM70.1072 18.1379L68.5878 12.9748H69.6265L70.6383 16.7665H70.6887L71.7039 12.9748H72.7426L73.751 16.7497H73.8014L74.8065 12.9748H75.8452L74.3292 18.1379H73.3039L72.2552 14.4101H72.1778L71.1291 18.1379H70.1072ZM77.804 15.0723V18.1379H76.799V12.9748H77.7637V13.8151H77.8276C77.9463 13.5417 78.1323 13.3221 78.3856 13.1563C78.641 12.9905 78.9626 12.9076 79.3503 12.9076C79.7021 12.9076 80.0103 12.9815 80.2747 13.1294C80.5391 13.2751 80.7442 13.4924 80.8898 13.7815C81.0355 14.0706 81.1083 14.428 81.1083 14.8538V18.1379H80.1033V14.9748C80.1033 14.6006 80.0058 14.3081 79.8108 14.0975C79.6159 13.8846 79.3481 13.7782 79.0074 13.7782C78.7744 13.7782 78.5671 13.8286 78.3856 13.9294C78.2063 14.0303 78.064 14.1782 77.9587 14.3731C77.8556 14.5659 77.804 14.7989 77.804 15.0723ZM83.4613 11.2537V18.1379H82.4563V11.2537H83.4613ZM86.9883 18.2421C86.5043 18.2421 86.0818 18.1312 85.7211 17.9094C85.3603 17.6875 85.0801 17.3771 84.8807 16.9782C84.6812 16.5794 84.5815 16.1132 84.5815 15.5799C84.5815 15.0443 84.6812 14.5759 84.8807 14.1748C85.0801 13.7737 85.3603 13.4622 85.7211 13.2403C86.0818 13.0185 86.5043 12.9076 86.9883 12.9076C87.4724 12.9076 87.8948 13.0185 88.2556 13.2403C88.6164 13.4622 88.8965 13.7737 89.0959 14.1748C89.2954 14.5759 89.3951 15.0443 89.3951 15.5799C89.3951 16.1132 89.2954 16.5794 89.0959 16.9782C88.8965 17.3771 88.6164 17.6875 88.2556 17.9094C87.8948 18.1312 87.4724 18.2421 86.9883 18.2421ZM86.9917 17.3984C87.3054 17.3984 87.5654 17.3155 87.7715 17.1497C87.9777 16.9838 88.1301 16.7631 88.2287 16.4875C88.3295 16.2118 88.3799 15.9082 88.3799 15.5765C88.3799 15.2471 88.3295 14.9446 88.2287 14.6689C88.1301 14.3911 87.9777 14.1681 87.7715 14C87.5654 13.8319 87.3054 13.7479 86.9917 13.7479C86.6757 13.7479 86.4135 13.8319 86.2051 14C85.9989 14.1681 85.8454 14.3911 85.7446 14.6689C85.646 14.9446 85.5967 15.2471 85.5967 15.5765C85.5967 15.9082 85.646 16.2118 85.7446 16.4875C85.8454 16.7631 85.9989 16.9838 86.2051 17.1497C86.4135 17.3155 86.6757 17.3984 86.9917 17.3984ZM92.0195 18.2522C91.6924 18.2522 91.3965 18.1917 91.1321 18.0707C90.8677 17.9475 90.6582 17.7693 90.5035 17.5362C90.3511 17.3032 90.2749 17.0175 90.2749 16.6791C90.2749 16.3878 90.331 16.148 90.443 15.9597C90.5551 15.7715 90.7063 15.6225 90.8968 15.5127C91.0873 15.4029 91.3002 15.3199 91.5355 15.2639C91.7708 15.2079 92.0106 15.1653 92.2548 15.1362C92.5641 15.1003 92.8151 15.0712 93.0078 15.0488C93.2005 15.0241 93.3406 14.9849 93.428 14.9311C93.5154 14.8774 93.5591 14.79 93.5591 14.6689V14.6454C93.5591 14.3518 93.4762 14.1244 93.3103 13.963C93.1467 13.8017 92.9025 13.721 92.5775 13.721C92.2391 13.721 91.9725 13.7961 91.7775 13.9462C91.5848 14.0941 91.4514 14.2588 91.3775 14.4404L90.4329 14.2252C90.545 13.9115 90.7086 13.6583 90.9237 13.4656C91.1411 13.2706 91.3909 13.1294 91.6733 13.042C91.9557 12.9524 92.2526 12.9076 92.5641 12.9076C92.7703 12.9076 92.9887 12.9322 93.2196 12.9815C93.4526 13.0286 93.67 13.116 93.8717 13.2437C94.0756 13.3714 94.2426 13.5541 94.3725 13.7916C94.5025 14.0269 94.5675 14.3328 94.5675 14.7093V18.1379H93.586V17.432H93.5456C93.4806 17.562 93.3832 17.6897 93.2532 17.8152C93.1232 17.9407 92.9562 18.0449 92.7523 18.1279C92.5484 18.2108 92.3041 18.2522 92.0195 18.2522ZM92.238 17.4455C92.5159 17.4455 92.7534 17.3906 92.9506 17.2808C93.1501 17.171 93.3014 17.0275 93.4044 16.8505C93.5098 16.6712 93.5624 16.4796 93.5624 16.2757V15.6101C93.5266 15.646 93.4571 15.6796 93.354 15.711C93.2532 15.7401 93.1378 15.7659 93.0078 15.7883C92.8778 15.8085 92.7512 15.8275 92.628 15.8454C92.5047 15.8611 92.4016 15.8746 92.3187 15.8858C92.1237 15.9104 91.9456 15.9519 91.7842 16.0102C91.6251 16.0684 91.4974 16.1525 91.401 16.2623C91.3069 16.3698 91.2598 16.5132 91.2598 16.6925C91.2598 16.9413 91.3517 17.1295 91.5355 17.2572C91.7192 17.3827 91.9534 17.4455 92.238 17.4455ZM97.839 18.2388C97.4222 18.2388 97.0502 18.1323 96.723 17.9194C96.3981 17.7043 96.1426 17.3984 95.9566 17.0018C95.7728 16.6029 95.681 16.1244 95.681 15.5664C95.681 15.0084 95.774 14.5311 95.96 14.1345C96.1482 13.7378 96.4059 13.4342 96.7331 13.2235C97.0603 13.0129 97.4312 12.9076 97.8457 12.9076C98.1662 12.9076 98.4239 12.9613 98.6189 13.0689C98.8161 13.1742 98.9684 13.2975 99.076 13.4387C99.1858 13.5798 99.271 13.7042 99.3315 13.8118H99.392V11.2537H100.397V18.1379H99.4155V17.3346H99.3315C99.271 17.4444 99.1836 17.5699 99.0693 17.711C98.9572 17.8522 98.8026 17.9755 98.6054 18.0808C98.4082 18.1861 98.1527 18.2388 97.839 18.2388ZM98.0609 17.3816C98.3499 17.3816 98.5942 17.3054 98.7937 17.153C98.9953 16.9984 99.1477 16.7844 99.2508 16.511C99.3561 16.2376 99.4088 15.9194 99.4088 15.5564C99.4088 15.1978 99.3573 14.8841 99.2542 14.6152C99.1511 14.3462 98.9998 14.1367 98.8004 13.9866C98.6009 13.8364 98.3544 13.7614 98.0609 13.7614C97.7583 13.7614 97.5062 13.8398 97.3045 13.9967C97.1029 14.1535 96.9505 14.3675 96.8474 14.6387C96.7465 14.9098 96.6961 15.2157 96.6961 15.5564C96.6961 15.9015 96.7477 16.2118 96.8507 16.4875C96.9538 16.7631 97.1062 16.9816 97.3079 17.143C97.5118 17.3021 97.7628 17.3816 98.0609 17.3816ZM108.754 12.9748L106.881 18.1379H105.806L103.93 12.9748H105.009L106.317 16.948H106.37L107.675 12.9748H108.754ZM109.698 18.1379V12.9748H110.703V18.1379H109.698ZM110.206 12.1781C110.031 12.1781 109.881 12.1199 109.755 12.0033C109.632 11.8846 109.57 11.7434 109.57 11.5798C109.57 11.414 109.632 11.2728 109.755 11.1562C109.881 11.0375 110.031 10.9781 110.206 10.9781C110.381 10.9781 110.53 11.0375 110.653 11.1562C110.778 11.2728 110.841 11.414 110.841 11.5798C110.841 11.7434 110.778 11.8846 110.653 12.0033C110.53 12.1199 110.381 12.1781 110.206 12.1781ZM113.558 18.2522C113.231 18.2522 112.935 18.1917 112.67 18.0707C112.406 17.9475 112.197 17.7693 112.042 17.5362C111.89 17.3032 111.813 17.0175 111.813 16.6791C111.813 16.3878 111.869 16.148 111.981 15.9597C112.093 15.7715 112.245 15.6225 112.435 15.5127C112.626 15.4029 112.839 15.3199 113.074 15.2639C113.309 15.2079 113.549 15.1653 113.793 15.1362C114.102 15.1003 114.353 15.0712 114.546 15.0488C114.739 15.0241 114.879 14.9849 114.966 14.9311C115.054 14.8774 115.097 14.79 115.097 14.6689V14.6454C115.097 14.3518 115.015 14.1244 114.849 13.963C114.685 13.8017 114.441 13.721 114.116 13.721C113.778 13.721 113.511 13.7961 113.316 13.9462C113.123 14.0941 112.99 14.2588 112.916 14.4404L111.971 14.2252C112.083 13.9115 112.247 13.6583 112.462 13.4656C112.679 13.2706 112.929 13.1294 113.212 13.042C113.494 12.9524 113.791 12.9076 114.102 12.9076C114.309 12.9076 114.527 12.9322 114.758 12.9815C114.991 13.0286 115.208 13.116 115.41 13.2437C115.614 13.3714 115.781 13.5541 115.911 13.7916C116.041 14.0269 116.106 14.3328 116.106 14.7093V18.1379H115.124V17.432H115.084C115.019 17.562 114.922 17.6897 114.792 17.8152C114.662 17.9407 114.495 18.0449 114.291 18.1279C114.087 18.2108 113.843 18.2522 113.558 18.2522ZM113.776 17.4455C114.054 17.4455 114.292 17.3906 114.489 17.2808C114.688 17.171 114.84 17.0275 114.943 16.8505C115.048 16.6712 115.101 16.4796 115.101 16.2757V15.6101C115.065 15.646 114.995 15.6796 114.892 15.711C114.792 15.7401 114.676 15.7659 114.546 15.7883C114.416 15.8085 114.29 15.8275 114.166 15.8454C114.043 15.8611 113.94 15.8746 113.857 15.8858C113.662 15.9104 113.484 15.9519 113.323 16.0102C113.163 16.0684 113.036 16.1525 112.939 16.2623C112.845 16.3698 112.798 16.5132 112.798 16.6925C112.798 16.9413 112.89 17.1295 113.074 17.2572C113.258 17.3827 113.492 17.4455 113.776 17.4455Z" fill="#17161C"/>
<path d="M58.3502 36.2759H56.293L60.0386 25.6366H62.4179L66.1686 36.2759H64.1114L61.2698 27.8185H61.1867L58.3502 36.2759ZM58.4178 32.1043H64.0283V33.6524H58.4178V32.1043ZM67.4868 39.2682V28.2965H69.3362V29.616H69.4453C69.5423 29.422 69.6791 29.216 69.8557 28.9978C70.0323 28.7761 70.2713 28.5874 70.5726 28.4315C70.8739 28.2722 71.2583 28.1926 71.7259 28.1926C72.3424 28.1926 72.8982 28.3501 73.3935 28.6653C73.8922 28.977 74.287 29.4393 74.5779 30.0523C74.8723 30.6619 75.0195 31.41 75.0195 32.2966C75.0195 33.1728 74.8757 33.9174 74.5883 34.5304C74.3008 35.1434 73.9095 35.6109 73.4142 35.933C72.919 36.2551 72.3579 36.4161 71.7311 36.4161C71.2739 36.4161 70.8947 36.3399 70.5934 36.1876C70.2921 36.0352 70.0497 35.8516 69.8661 35.6369C69.686 35.4187 69.5457 35.2126 69.4453 35.0187H69.3674V39.2682H67.4868ZM69.331 32.2862C69.331 32.8022 69.4037 33.2542 69.5492 33.642C69.6981 34.0299 69.9111 34.333 70.1882 34.5512C70.4687 34.7659 70.8081 34.8732 71.2064 34.8732C71.622 34.8732 71.97 34.7624 72.2506 34.5408C72.5311 34.3157 72.7424 34.0092 72.8844 33.6213C73.0298 33.2299 73.1025 32.7849 73.1025 32.2862C73.1025 31.7909 73.0315 31.3511 72.8896 30.9667C72.7476 30.5822 72.5363 30.2809 72.2558 30.0627C71.9752 29.8445 71.6254 29.7355 71.2064 29.7355C70.8046 29.7355 70.4635 29.8411 70.183 30.0523C69.9025 30.2636 69.6895 30.5597 69.544 30.9407C69.402 31.3216 69.331 31.7701 69.331 32.2862ZM76.6299 39.2682V28.2965H78.4793V29.616H78.5884C78.6854 29.422 78.8222 29.216 78.9988 28.9978C79.1754 28.7761 79.4144 28.5874 79.7157 28.4315C80.017 28.2722 80.4014 28.1926 80.869 28.1926C81.4854 28.1926 82.0413 28.3501 82.5366 28.6653C83.0353 28.977 83.4301 29.4393 83.721 30.0523C84.0154 30.6619 84.1626 31.41 84.1626 32.2966C84.1626 33.1728 84.0188 33.9174 83.7314 34.5304C83.4439 35.1434 83.0526 35.6109 82.5573 35.933C82.0621 36.2551 81.501 36.4161 80.8742 36.4161C80.417 36.4161 80.0378 36.3399 79.7365 36.1876C79.4352 36.0352 79.1927 35.8516 79.0092 35.6369C78.8291 35.4187 78.6888 35.2126 78.5884 35.0187H78.5105V39.2682H76.6299ZM78.4741 32.2862C78.4741 32.8022 78.5468 33.2542 78.6923 33.642C78.8412 34.0299 79.0542 34.333 79.3313 34.5512C79.6118 34.7659 79.9512 34.8732 80.3495 34.8732C80.7651 34.8732 81.1131 34.7624 81.3937 34.5408C81.6742 34.3157 81.8855 34.0092 82.0274 33.6213C82.1729 33.2299 82.2456 32.7849 82.2456 32.2862C82.2456 31.7909 82.1746 31.3511 82.0326 30.9667C81.8906 30.5822 81.6794 30.2809 81.3989 30.0627C81.1183 29.8445 80.7685 29.7355 80.3495 29.7355C79.9477 29.7355 79.6066 29.8411 79.3261 30.0523C79.0456 30.2636 78.8326 30.5597 78.6871 30.9407C78.5451 31.3216 78.4741 31.7701 78.4741 32.2862ZM95.2668 28.5614C95.2183 28.1077 95.0139 27.7544 94.6537 27.5016C94.297 27.2488 93.8329 27.1224 93.2615 27.1224C92.8598 27.1224 92.5152 27.183 92.2277 27.3042C91.9403 27.4254 91.7203 27.5899 91.568 27.7977C91.4156 28.0055 91.3376 28.2428 91.3342 28.5094C91.3342 28.7311 91.3844 28.9233 91.4848 29.0861C91.5887 29.2489 91.729 29.3874 91.9056 29.5017C92.0823 29.6125 92.2779 29.706 92.4927 29.7822C92.7074 29.8584 92.9238 29.9225 93.142 29.9744L94.1394 30.2238C94.5412 30.3173 94.9273 30.4437 95.2979 30.603C95.672 30.7623 96.0062 30.9632 96.3005 31.2056C96.5984 31.448 96.8339 31.7407 97.0071 32.0836C97.1802 32.4264 97.2668 32.8282 97.2668 33.2888C97.2668 33.9122 97.1075 34.4611 96.7889 34.9356C96.4702 35.4066 96.0096 35.7754 95.407 36.0421C94.8079 36.3053 94.0823 36.4369 93.2303 36.4369C92.4026 36.4369 91.684 36.3088 91.0744 36.0525C90.4684 35.7962 89.9939 35.4222 89.651 34.9304C89.3116 34.4386 89.1281 33.8395 89.1004 33.1329H90.9965C91.0242 33.5035 91.1385 33.8117 91.3394 34.0576C91.5402 34.3035 91.8017 34.4871 92.1238 34.6083C92.4494 34.7295 92.813 34.7901 93.2147 34.7901C93.6338 34.7901 94.0009 34.7278 94.3161 34.6031C94.6347 34.475 94.8841 34.2983 95.0641 34.0732C95.2442 33.8446 95.336 33.578 95.3395 33.2732C95.336 32.9961 95.2546 32.7676 95.0953 32.5875C94.936 32.4039 94.7126 32.2515 94.4252 32.1303C94.1412 32.0056 93.8087 31.8948 93.4277 31.7978L92.2173 31.4861C91.3411 31.261 90.6484 30.9199 90.1393 30.4627C89.6337 30.0021 89.3809 29.3909 89.3809 28.6289C89.3809 28.0021 89.5506 27.4531 89.89 26.9821C90.2329 26.5111 90.6987 26.1457 91.2874 25.886C91.8762 25.6228 92.5429 25.4912 93.2875 25.4912C94.0425 25.4912 94.704 25.6228 95.2719 25.886C95.8434 26.1457 96.2919 26.5077 96.6174 26.9717C96.943 27.4324 97.111 27.9622 97.1213 28.5614H95.2668ZM102.886 28.2965V29.751H98.2993V28.2965H102.886ZM99.4318 26.3847H101.312V33.8758C101.312 34.1286 101.35 34.3226 101.427 34.4577C101.506 34.5893 101.61 34.6793 101.738 34.7278C101.866 34.7763 102.008 34.8005 102.164 34.8005C102.282 34.8005 102.389 34.7919 102.486 34.7745C102.587 34.7572 102.663 34.7416 102.715 34.7278L103.032 36.198C102.931 36.2326 102.788 36.2707 102.601 36.3122C102.417 36.3538 102.192 36.378 101.925 36.385C101.454 36.3988 101.03 36.3278 100.653 36.172C100.275 36.0127 99.9755 35.7668 99.7539 35.4343C99.5357 35.1018 99.4283 34.6862 99.4318 34.1875V26.3847ZM107.854 36.4317C107.075 36.4317 106.4 36.2603 105.828 35.9174C105.257 35.5746 104.813 35.0949 104.498 34.4784C104.186 33.862 104.031 33.1416 104.031 32.3173C104.031 31.4931 104.186 30.771 104.498 30.151C104.813 29.5311 105.257 29.0497 105.828 28.7069C106.4 28.364 107.075 28.1926 107.854 28.1926C108.633 28.1926 109.309 28.364 109.88 28.7069C110.452 29.0497 110.893 29.5311 111.205 30.151C111.52 30.771 111.678 31.4931 111.678 32.3173C111.678 33.1416 111.52 33.862 111.205 34.4784C110.893 35.0949 110.452 35.5746 109.88 35.9174C109.309 36.2603 108.633 36.4317 107.854 36.4317ZM107.864 34.9252C108.287 34.9252 108.64 34.8092 108.924 34.5771C109.208 34.3416 109.419 34.0265 109.558 33.6317C109.7 33.2368 109.771 32.797 109.771 32.3121C109.771 31.8238 109.7 31.3822 109.558 30.9874C109.419 30.5892 109.208 30.2723 108.924 30.0368C108.64 29.8013 108.287 29.6835 107.864 29.6835C107.432 29.6835 107.071 29.8013 106.784 30.0368C106.5 30.2723 106.287 30.5892 106.145 30.9874C106.006 31.3822 105.937 31.8238 105.937 32.3121C105.937 32.797 106.006 33.2368 106.145 33.6317C106.287 34.0265 106.5 34.3416 106.784 34.5771C107.071 34.8092 107.432 34.9252 107.864 34.9252ZM113.274 36.2759V28.2965H115.097V29.6264H115.18C115.326 29.1657 115.575 28.8108 115.928 28.5614C116.285 28.3086 116.692 28.1822 117.149 28.1822C117.253 28.1822 117.369 28.1874 117.497 28.1977C117.629 28.2047 117.738 28.2168 117.824 28.2341V29.964C117.745 29.9363 117.618 29.9121 117.445 29.8913C117.276 29.8671 117.111 29.8549 116.952 29.8549C116.609 29.8549 116.301 29.9294 116.027 30.0783C115.757 30.2238 115.544 30.4264 115.388 30.6861C115.232 30.9459 115.154 31.2454 115.154 31.5848V36.2759H113.274ZM122.278 36.4317C121.478 36.4317 120.787 36.2655 120.205 35.933C119.627 35.5971 119.182 35.1226 118.87 34.5096C118.558 33.8931 118.402 33.1676 118.402 32.3329C118.402 31.5121 118.558 30.7918 118.87 30.1718C119.185 29.5484 119.625 29.0636 120.189 28.7172C120.754 28.3675 121.417 28.1926 122.179 28.1926C122.671 28.1926 123.135 28.2722 123.571 28.4315C124.011 28.5874 124.399 28.8298 124.735 29.1588C125.074 29.4878 125.341 29.9069 125.535 30.416C125.729 30.9216 125.826 31.5242 125.826 32.2238V32.8005H119.286V31.5329H124.023C124.02 31.1727 123.942 30.8524 123.79 30.5718C123.637 30.2878 123.424 30.0645 123.151 29.9017C122.88 29.7389 122.565 29.6575 122.205 29.6575C121.821 29.6575 121.483 29.751 121.192 29.9381C120.901 30.1216 120.674 30.364 120.512 30.6653C120.352 30.9632 120.271 31.2905 120.267 31.6472V32.7537C120.267 33.2178 120.352 33.6161 120.522 33.9485C120.692 34.2776 120.929 34.5304 121.234 34.707C121.538 34.8802 121.895 34.9668 122.304 34.9668C122.577 34.9668 122.825 34.9287 123.047 34.8525C123.268 34.7728 123.461 34.6568 123.623 34.5044C123.786 34.352 123.909 34.1633 123.992 33.9382L125.748 34.1356C125.637 34.5996 125.426 35.0049 125.114 35.3512C124.806 35.694 124.411 35.9607 123.93 36.1512C123.448 36.3382 122.898 36.4317 122.278 36.4317Z" fill="#17161C"/>
<path d="M26.9367 35.9819C26.4057 35.639 25.935 35.2153 25.5429 34.727C25.1115 34.2231 24.7118 33.6943 24.346 33.1437C23.4875 31.923 22.8143 30.5888 22.347 29.1821C21.7855 27.5482 21.5137 25.982 21.5137 24.4501C21.5137 22.7394 21.895 21.2459 22.6407 19.991C23.1935 19.0102 24.0063 18.1905 24.9949 17.6169C25.953 17.0392 27.0539 16.7231 28.1816 16.7018C28.5763 16.7018 29.0014 16.7574 29.4525 16.8636C29.7766 16.9527 30.1714 17.0932 30.6536 17.268C31.2672 17.4976 31.6048 17.6381 31.7192 17.6724C32.0786 17.7999 32.3808 17.8554 32.6182 17.8554C32.7983 17.8554 33.0525 17.7999 33.3412 17.7149C33.5036 17.6594 33.81 17.5613 34.2485 17.3791C34.6828 17.2255 35.0246 17.094 35.2964 16.996C35.7131 16.8767 36.1163 16.7664 36.4757 16.7108C36.9017 16.6456 37.3341 16.6284 37.7643 16.6594C38.5097 16.7067 39.2439 16.86 39.9434 17.1144C41.0873 17.5613 42.0123 18.259 42.7008 19.2508C42.4098 19.4249 42.1367 19.6258 41.8852 19.8505C41.3378 20.3216 40.8715 20.8746 40.504 21.4886C40.0237 22.3277 39.7746 23.2729 39.781 24.2328C39.7987 25.4117 40.1101 26.4501 40.7237 27.348C41.1748 28.0134 41.7611 28.5825 42.4466 29.0204C42.7976 29.2499 43.0998 29.4076 43.3893 29.5138C43.2538 29.9223 43.1091 30.3177 42.9382 30.7099C42.5507 31.5893 42.081 32.4324 41.5351 33.2287C41.0486 33.9141 40.6673 34.4247 40.3778 34.7646C39.9266 35.2834 39.4923 35.6796 39.0538 35.9558C38.5715 36.2662 38.0017 36.4321 37.4226 36.4321C37.0304 36.4467 36.6383 36.4006 36.261 36.2956C35.937 36.1894 35.6163 36.0742 35.3007 35.9427C34.9725 35.7964 34.6341 35.6727 34.2881 35.5726C33.4327 35.3593 32.5358 35.3579 31.6797 35.5685C31.3287 35.6666 30.9912 35.7809 30.6579 35.9215C30.189 36.1126 29.8776 36.2409 29.6975 36.2956C29.3381 36.3978 28.9652 36.4615 28.5881 36.4827C28.0048 36.4827 27.4611 36.321 26.9224 35.9933L26.9367 35.9819ZM34.6298 15.8718C33.8672 16.2419 33.1392 16.3996 32.4162 16.3481C32.3025 15.6414 32.4162 14.9184 32.7183 14.1267C32.9756 13.456 33.3557 12.836 33.8403 12.2967C34.3521 11.7289 34.9731 11.2635 35.6685 10.9266C36.4092 10.5565 37.1153 10.3563 37.7904 10.3269C37.8779 11.0671 37.7904 11.795 37.5101 12.5818C37.2507 13.2773 36.8713 13.9249 36.3881 14.4968C35.8949 15.0654 35.2897 15.5326 34.6079 15.871L34.6298 15.8718Z" fill="#17161C"/>
</svg>
