<svg width="993" height="200" viewBox="0 0 993 200" fill="none" xmlns="http://www.w3.org/2000/svg">
<path opacity="0.6" fill-rule="evenodd" clip-rule="evenodd" d="M549.139 50.0903H475.08C433.718 50.0903 400.188 83.6206 400.188 124.982C400.188 166.344 433.719 199.874 475.08 199.874H549.139V170.483H475.08C449.951 170.483 429.579 150.112 429.579 124.982C429.579 99.8528 449.951 79.4814 475.08 79.4814H549.139V50.0903Z" fill="#F974CC"/>
<path fill-rule="evenodd" clip-rule="evenodd" d="M915.43 79.0519V144.111C915.43 174.741 940.261 199.572 970.891 199.572H992.872V170.181H970.891C956.493 170.181 944.821 158.509 944.821 144.111V79.0519H992.959V49.6608H944.821V0H915.43V49.6608H893.103V79.0519H915.43ZM724.375 94.3924C724.375 69.6878 744.662 49.6608 769.687 49.6608H859.981V78.6754H769.687C760.894 78.6754 753.766 85.7121 753.766 94.3924C753.766 103.073 760.894 110.109 769.687 110.109L786.566 110.109H823.467C848.492 110.109 868.779 130.136 868.779 154.841C868.779 179.545 848.492 199.572 823.467 199.572H725.334V170.558H823.467C832.26 170.558 839.388 163.521 839.388 154.841C839.388 146.161 832.26 139.124 823.467 139.124L794.365 139.124H769.687C744.662 139.124 724.375 119.097 724.375 94.3924ZM625.318 79.4813H550.427C525.297 79.4813 504.926 99.8527 504.926 124.982C504.926 150.112 525.297 170.483 550.427 170.483H625.319C650.448 170.483 670.819 150.112 670.819 124.982C670.819 99.8528 650.448 79.4813 625.318 79.4813ZM550.427 50.0902C509.065 50.0902 475.535 83.6205 475.535 124.982C475.535 166.344 509.065 199.874 550.427 199.874H625.319C666.68 199.874 700.21 166.344 700.21 124.982C700.21 83.6205 666.68 50.0902 625.318 50.0902H550.427ZM223.551 2.64008e-05L223.551 199.712H252.942V182.546C265.899 193.268 282.526 199.712 300.657 199.712C342.019 199.712 375.549 166.181 375.549 124.82C375.549 83.4581 342.019 49.9279 300.657 49.9279C282.526 49.9279 265.899 56.3713 252.942 67.0933L252.942 2.64008e-05H223.551ZM300.657 170.321C275.528 170.321 255.156 149.949 255.156 124.82C255.156 99.6904 275.528 79.319 300.657 79.319C325.787 79.319 346.158 99.6904 346.158 124.82C346.158 149.949 325.787 170.321 300.657 170.321ZM21.2832 139.498V50.4209H0V139.498C0 172.912 27.0878 200 60.5022 200C93.9167 200 121.004 172.912 121.004 139.498V50.4209H99.7213V139.498C99.7213 161.158 82.1623 178.717 60.5022 178.717C38.8422 178.717 21.2832 161.158 21.2832 139.498ZM153.436 50.421V199.443H174.719L174.719 50.421H153.436Z" fill="#F974CC"/>
</svg>
