<svg width="94" height="94" viewBox="0 0 94 94" fill="none" xmlns="http://www.w3.org/2000/svg">
<path d="M78.6082 76.9622C83.0227 78.3827 86.7897 73.4815 84.2726 69.5989L77.1701 58.6328C75.584 56.1836 76.472 52.9034 79.0717 51.5742L90.7354 45.6093C94.8671 43.4985 94.0656 37.3755 89.5365 36.4126L76.7333 33.6891C73.8782 33.0851 72.1802 30.1442 73.0818 27.3643L77.1225 14.9228C78.5553 10.5109 73.6564 6.7605 69.7574 9.28624L58.7598 16.4048C56.3036 17.9946 53.021 17.1154 51.6961 14.5223L45.7504 2.88834C43.6465 -1.23281 37.5185 -0.421105 36.5384 4.10712L33.7864 16.8965C33.1749 19.7492 30.226 21.4517 27.4446 20.5579L14.9927 16.5466C10.5781 15.1261 6.81117 20.0272 9.33121 23.915L16.4337 34.8811C18.0199 37.3302 17.1318 40.6104 14.5321 41.9397L2.86842 47.9046C-1.26324 50.0153 -0.461816 56.1383 4.06727 57.1013L16.8675 59.8196C19.7257 60.4288 21.4236 63.3697 20.5191 66.1444L16.4731 78.5889C15.0404 83.0008 19.9393 86.7512 23.8383 84.2255L34.8359 77.1069C37.2921 75.5171 40.5747 76.3963 41.8996 78.9894L47.8453 90.6234C49.9492 94.7445 56.0824 93.9298 57.0543 89.3994L59.8063 76.6101C60.4178 73.7573 63.3667 72.0548 66.1481 72.9486L78.6082 76.9622Z" fill="black"/>
</svg>
