<svg width="65" height="32" viewBox="0 0 65 32" fill="none" xmlns="http://www.w3.org/2000/svg">
<path opacity="0.6" fill-rule="evenodd" clip-rule="evenodd" d="M31.8219 0H16C7.16344 0 0 7.16344 0 16C0 24.8366 7.16346 32 16 32H31.8219V25.7209H16C10.6313 25.7209 6.27915 21.3687 6.27915 16C6.27915 10.6313 10.6313 6.27915 16 6.27915H31.8219V0Z" fill="#F974CC"/>
<path fill-rule="evenodd" clip-rule="evenodd" d="M48.0967 6.27915H32.0967C26.728 6.27915 22.3758 10.6313 22.3758 16C22.3758 21.3687 26.728 25.7209 32.0967 25.7209H48.0967C53.4654 25.7209 57.8175 21.3687 57.8175 16C57.8175 10.6313 53.4654 6.27915 48.0967 6.27915ZM32.0967 0C23.2601 0 16.0967 7.16344 16.0967 16C16.0967 24.8366 23.2601 32 32.0967 32H48.0967C56.9332 32 64.0967 24.8366 64.0967 16C64.0967 7.16344 56.9332 0 48.0967 0L32.0967 0Z" fill="#F974CC"/>
</svg>
