<svg width="170" height="73" viewBox="0 0 170 73" fill="none" xmlns="http://www.w3.org/2000/svg">
<path d="M1.28 20.448L0.281248 20.3981L0.228751 21.448H1.28V20.448ZM8 5.664L8.63902 6.43319L8.64018 6.43222L8 5.664ZM36.608 2.88L36.1608 3.77442L36.1677 3.77789L36.1747 3.78125L36.608 2.88ZM44.096 9.504L43.2351 10.0127L43.2419 10.0243L43.2491 10.0358L44.096 9.504ZM43.52 29.184L42.72 28.584L42.7178 28.587L43.52 29.184ZM36.128 34.752L35.8118 33.8033L35.128 34.0312V34.752H36.128ZM36.128 35.136H35.128V35.8727L35.8316 36.0911L36.128 35.136ZM44.768 41.28L43.9471 41.8511L43.9512 41.857L43.9555 41.8629L44.768 41.28ZM45.248 62.88L44.3889 62.3682L44.3848 62.375L44.3809 62.3819L45.248 62.88ZM37.472 69.984L37.9124 70.8818L37.9192 70.8784L37.472 69.984ZM7.52 67.008L6.89397 67.7878L7.52 67.008ZM0.32 50.88V49.88H-0.716685L-0.679351 50.916L0.32 50.88ZM13.376 50.88L14.3752 50.8392L14.336 49.88H13.376V50.88ZM16.544 58.464L15.8486 59.1826L15.8603 59.194L15.8725 59.205L16.544 58.464ZM32.384 58.56L31.6646 57.8654L31.6642 57.8659L32.384 58.56ZM17.312 40.704H16.312V41.704H17.312V40.704ZM17.312 29.664V28.664H16.312V29.664H17.312ZM31.232 14.112L30.5395 14.8334L30.5465 14.8402L30.5537 14.8468L31.232 14.112ZM17.216 14.304L17.9231 15.0111H17.9231L17.216 14.304ZM14.432 20.448V21.448H15.3347L15.4268 20.55L14.432 20.448ZM2.27875 20.4979C2.58759 14.3212 4.73413 9.67725 8.63902 6.43319L7.36098 4.89481C2.94587 8.56274 0.61241 13.7748 0.281248 20.3981L2.27875 20.4979ZM8.64018 6.43222C12.6437 3.09592 17.9348 1.384 24.608 1.384V-0.616005C17.5852 -0.616005 11.8043 1.19207 7.35982 4.89577L8.64018 6.43222ZM24.608 1.384C29.1635 1.384 33.0026 2.19531 36.1608 3.77442L37.0552 1.98557C33.5574 0.236683 29.3965 -0.616005 24.608 -0.616005V1.384ZM36.1747 3.78125C39.3482 5.30699 41.6843 7.38833 43.2351 10.0127L44.9569 8.99527C43.1797 5.98766 40.5238 3.653 37.0413 1.97874L36.1747 3.78125ZM43.2491 10.0358C44.8688 12.6152 45.688 15.5638 45.688 18.912H47.688C47.688 15.2201 46.7793 11.8968 44.9429 8.97223L43.2491 10.0358ZM45.688 18.912C45.688 22.7605 44.6838 25.9656 42.72 28.584L44.32 29.784C46.5802 26.7704 47.688 23.1275 47.688 18.912H45.688ZM42.7178 28.587C40.7755 31.197 38.4729 32.9163 35.8118 33.8033L36.4442 35.7007C39.5431 34.6677 42.1685 32.675 44.3222 29.781L42.7178 28.587ZM35.128 34.752V35.136H37.128V34.752H35.128ZM35.8316 36.0911C39.3499 37.1829 42.0372 39.1056 43.9471 41.8511L45.5889 40.7089C43.4028 37.5664 40.3301 35.3931 36.4244 34.1809L35.8316 36.0911ZM43.9555 41.8629C45.916 44.5958 46.936 48.1521 46.936 52.608H48.936C48.936 47.8479 47.844 43.8521 45.5805 40.6971L43.9555 41.8629ZM46.936 52.608C46.936 56.2858 46.0799 59.5297 44.3889 62.3682L46.1071 63.3918C48.0001 60.2143 48.936 56.6102 48.936 52.608H46.936ZM44.3809 62.3819C42.7618 65.2003 40.3257 67.4391 37.0248 69.0896L37.9192 70.8784C41.5303 69.0729 44.2782 66.5757 46.1151 63.3781L44.3809 62.3819ZM37.0316 69.0862C33.8086 70.6673 29.8714 71.48 25.184 71.48V73.48C30.0966 73.48 34.3514 72.6287 37.9124 70.8818L37.0316 69.0862ZM25.184 71.48C18.1233 71.48 12.4731 69.702 8.14603 66.2282L6.89397 67.7878C11.6549 71.61 17.7807 73.48 25.184 73.48V71.48ZM8.14603 66.2282C3.87784 62.8016 1.5674 57.7272 1.31935 50.844L-0.679351 50.916C-0.415396 58.2408 2.07416 63.9184 6.89397 67.7878L8.14603 66.2282ZM0.32 51.88H13.376V49.88H0.32V51.88ZM12.3768 50.9208C12.5138 54.2754 13.6545 57.0593 15.8486 59.1826L17.2394 57.7454C15.4655 56.0287 14.4942 53.7566 14.3752 50.8392L12.3768 50.9208ZM15.8725 59.205C18.1506 61.2695 21.198 62.248 24.896 62.248V60.248C21.554 60.248 19.0334 59.3705 17.2155 57.723L15.8725 59.205ZM24.896 62.248C28.3432 62.248 31.1338 61.2971 33.1038 59.2541L31.6642 57.8659C30.1782 59.4069 27.9768 60.248 24.896 60.248V62.248ZM33.1034 59.2546C35.097 57.1898 36.072 54.5623 36.072 51.456H34.072C34.072 54.1096 33.255 56.2182 31.6646 57.8654L33.1034 59.2546ZM36.072 51.456C36.072 47.3972 34.7736 44.2802 31.9887 42.3747L30.8593 44.0253C32.9384 45.4478 34.072 47.8348 34.072 51.456H36.072ZM31.9887 42.3747C29.3076 40.5402 25.286 39.704 20.096 39.704V41.704C25.146 41.704 28.6764 42.5318 30.8593 44.0253L31.9887 42.3747ZM20.096 39.704H17.312V41.704H20.096V39.704ZM18.312 40.704V29.664H16.312V40.704H18.312ZM17.312 30.664H20.096V28.664H17.312V30.664ZM20.096 30.664C24.72 30.664 28.3631 29.8964 30.8761 28.2151C33.4601 26.4864 34.728 23.8738 34.728 20.544H32.728C32.728 23.2942 31.7239 25.2416 29.764 26.5528C27.7329 27.9116 24.56 28.664 20.096 28.664V30.664ZM34.728 20.544C34.728 17.5778 33.8226 15.1424 31.9103 13.3772L30.5537 14.8468C31.9694 16.1536 32.728 18.0062 32.728 20.544H34.728ZM31.9245 13.3906C30.0765 11.6165 27.4535 10.808 24.224 10.808V12.808C27.1385 12.808 29.1875 13.5355 30.5395 14.8334L31.9245 13.3906ZM24.224 10.808C21.0281 10.808 18.4088 11.6969 16.5089 13.5969L17.9231 15.0111C19.3512 13.583 21.4039 12.808 24.224 12.808V10.808ZM16.5089 13.5969C14.7284 15.3774 13.714 17.6477 13.4372 20.346L15.4268 20.55C15.662 18.2563 16.5036 16.4306 17.9231 15.0111L16.5089 13.5969ZM14.432 19.448H1.28V21.448H14.432V19.448ZM63.0687 10.08L62.2276 9.53922L62.2237 9.54535L63.0687 10.08ZM102.909 10.08L102.064 10.6147L102.068 10.6208L102.909 10.08ZM102.909 62.304L102.065 61.7671L102.061 61.7732L102.909 62.304ZM63.0687 62.304L62.2212 62.8348L62.2251 62.8409L63.0687 62.304ZM94.7488 24.192L93.764 24.3658L93.7659 24.377L93.7682 24.3881L94.7488 24.192ZM91.1008 16.224L90.3482 16.8825L90.3539 16.8891L90.3598 16.8955L91.1008 16.224ZM74.8768 16.224L74.1358 15.5525L74.1299 15.5589L74.1242 15.5655L74.8768 16.224ZM71.2288 24.192L70.2474 23.9996L70.2459 24.0072L70.2446 24.0148L71.2288 24.192ZM71.2288 48.384L70.2434 48.5545L70.244 48.5578L71.2288 48.384ZM74.8768 56.352L74.1358 57.0235L74.1411 57.0294L74.1465 57.0352L74.8768 56.352ZM91.1968 56.352L91.927 57.0352L91.9324 57.0294L91.9377 57.0235L91.1968 56.352ZM94.8447 48.384L95.8295 48.5578L95.8301 48.5545L94.8447 48.384ZM58.1168 36.096C58.1168 25.1262 60.0852 16.6663 63.9138 10.6146L62.2237 9.54535C58.1163 16.0377 56.1168 24.9218 56.1168 36.096H58.1168ZM63.9099 10.6208C67.7118 4.70674 74.0019 1.672 83.0368 1.672V-0.328003C73.5116 -0.328003 66.4897 2.90926 62.2276 9.53924L63.9099 10.6208ZM83.0368 1.672C92.0722 1.672 98.326 4.70665 102.064 10.6146L103.754 9.54535C99.5555 2.90934 92.5613 -0.328003 83.0368 -0.328003V1.672ZM102.068 10.6208C105.957 16.6711 107.957 25.1285 107.957 36.096H109.957C109.957 24.9195 107.924 16.0329 103.75 9.53924L102.068 10.6208ZM107.957 36.096C107.957 47.128 105.957 55.6514 102.065 61.7671L103.752 62.8409C107.925 56.2846 109.957 47.336 109.957 36.096H107.957ZM102.061 61.7732C98.3216 67.7446 92.0678 70.808 83.0368 70.808V72.808C92.5657 72.808 99.5599 69.5354 103.756 62.8348L102.061 61.7732ZM83.0368 70.808C74.0062 70.808 67.7162 67.7445 63.9124 61.7671L62.2251 62.8409C66.4853 69.5356 73.5073 72.808 83.0368 72.808V70.808ZM63.9163 61.7732C60.0854 55.6561 58.1168 47.1302 58.1168 36.096H56.1168C56.1168 47.3338 58.1161 56.2799 62.2212 62.8348L63.9163 61.7732ZM96.7088 36.096C96.7088 31.3208 96.3866 27.2822 95.7293 23.9959L93.7682 24.3881C94.3909 27.5018 94.7088 31.3992 94.7088 36.096H96.7088ZM95.7335 24.0182C95.1314 20.6059 93.8475 17.7657 91.8417 15.5525L90.3598 16.8955C92.066 18.7783 93.2141 21.25 93.764 24.3658L95.7335 24.0182ZM91.8533 15.5655C89.8158 13.2369 86.8122 12.152 83.0368 12.152V14.152C86.4293 14.152 88.8017 15.1151 90.3482 16.8825L91.8533 15.5655ZM83.0368 12.152C79.2592 12.152 76.2337 13.2375 74.1358 15.5525L75.6177 16.8955C77.2318 15.1145 79.6463 14.152 83.0368 14.152V12.152ZM74.1242 15.5655C72.193 17.7725 70.9138 20.601 70.2474 23.9996L72.2101 24.3844C72.8237 21.255 73.9765 18.7715 75.6293 16.8825L74.1242 15.5655ZM70.2446 24.0148C69.6545 27.2931 69.3648 31.3249 69.3648 36.096H71.3648C71.3648 31.3951 71.651 27.4909 72.2129 24.3692L70.2446 24.0148ZM69.3648 36.096C69.3648 40.9946 69.6544 45.1516 70.2434 48.5545L72.2141 48.2135C71.6511 44.9604 71.3648 40.9254 71.3648 36.096H69.3648ZM70.244 48.5578C70.8461 51.97 72.13 54.8103 74.1358 57.0235L75.6177 55.6805C73.9115 53.7977 72.7634 51.326 72.2135 48.2102L70.244 48.5578ZM74.1465 57.0352C76.2467 59.2802 79.2686 60.328 83.0368 60.328V58.328C79.6369 58.328 77.2188 57.3918 75.607 55.6688L74.1465 57.0352ZM83.0368 60.328C86.8049 60.328 89.8268 59.2802 91.927 57.0352L90.4665 55.6688C88.8547 57.3918 86.4366 58.328 83.0368 58.328V60.328ZM91.9377 57.0235C93.9435 54.8103 95.2274 51.97 95.8295 48.5578L93.86 48.2102C93.3101 51.326 92.162 53.7977 90.4558 55.6805L91.9377 57.0235ZM95.8301 48.5545C96.4191 45.1516 96.7088 40.9946 96.7088 36.096H94.7088C94.7088 40.9254 94.4224 44.9604 93.8594 48.2135L95.8301 48.5545ZM123.691 10.08L122.85 9.53922L122.846 9.54535L123.691 10.08ZM163.531 10.08L162.686 10.6147L162.69 10.6208L163.531 10.08ZM163.531 62.304L162.688 61.7671L162.684 61.7732L163.531 62.304ZM123.691 62.304L122.844 62.8348L122.848 62.8409L123.691 62.304ZM155.371 24.192L154.386 24.3658L154.388 24.377L154.391 24.3881L155.371 24.192ZM151.723 16.224L150.971 16.8825L150.976 16.8891L150.982 16.8955L151.723 16.224ZM135.499 16.224L134.758 15.5525L134.752 15.5589L134.747 15.5655L135.499 16.224ZM131.851 24.192L130.87 23.9996L130.868 24.0072L130.867 24.0148L131.851 24.192ZM131.851 48.384L130.866 48.5545L130.866 48.5578L131.851 48.384ZM135.499 56.352L134.758 57.0235L134.764 57.0294L134.769 57.0352L135.499 56.352ZM151.819 56.352L152.55 57.0352L152.555 57.0294L152.56 57.0235L151.819 56.352ZM155.467 48.384L156.452 48.5578L156.453 48.5545L155.467 48.384ZM118.739 36.096C118.739 25.1262 120.708 16.6663 124.536 10.6146L122.846 9.54535C118.739 16.0377 116.739 24.9218 116.739 36.096H118.739ZM124.532 10.6208C128.334 4.70674 134.624 1.672 143.659 1.672V-0.328003C134.134 -0.328003 127.112 2.90926 122.85 9.53924L124.532 10.6208ZM143.659 1.672C152.695 1.672 158.948 4.70665 162.686 10.6146L164.376 9.54535C160.178 2.90934 153.184 -0.328003 143.659 -0.328003V1.672ZM162.69 10.6208C166.58 16.6711 168.579 25.1285 168.579 36.096H170.579C170.579 24.9195 168.547 16.0329 164.372 9.53924L162.69 10.6208ZM168.579 36.096C168.579 47.128 166.579 55.6514 162.688 61.7671L164.375 62.8409C168.547 56.2846 170.579 47.336 170.579 36.096H168.579ZM162.684 61.7732C158.944 67.7446 152.69 70.808 143.659 70.808V72.808C153.188 72.808 160.182 69.5354 164.379 62.8348L162.684 61.7732ZM143.659 70.808C134.629 70.808 128.339 67.7445 124.535 61.7671L122.848 62.8409C127.108 69.5356 134.13 72.808 143.659 72.808V70.808ZM124.539 61.7732C120.708 55.6561 118.739 47.1302 118.739 36.096H116.739C116.739 47.3338 118.739 56.2799 122.844 62.8348L124.539 61.7732ZM157.331 36.096C157.331 31.3208 157.009 27.2822 156.352 23.9959L154.391 24.3881C155.013 27.5018 155.331 31.3992 155.331 36.096H157.331ZM156.356 24.0182C155.754 20.6059 154.47 17.7657 152.464 15.5525L150.982 16.8955C152.688 18.7783 153.837 21.25 154.386 24.3658L156.356 24.0182ZM152.476 15.5655C150.438 13.2369 147.435 12.152 143.659 12.152V14.152C147.052 14.152 149.424 15.1151 150.971 16.8825L152.476 15.5655ZM143.659 12.152C139.882 12.152 136.856 13.2375 134.758 15.5525L136.24 16.8955C137.854 15.1145 140.269 14.152 143.659 14.152V12.152ZM134.747 15.5655C132.816 17.7725 131.536 20.601 130.87 23.9996L132.833 24.3844C133.446 21.255 134.599 18.7715 136.252 16.8825L134.747 15.5655ZM130.867 24.0148C130.277 27.2931 129.987 31.3249 129.987 36.096H131.987C131.987 31.3951 132.274 27.4909 132.835 24.3692L130.867 24.0148ZM129.987 36.096C129.987 40.9946 130.277 45.1516 130.866 48.5545L132.837 48.2135C132.274 44.9604 131.987 40.9254 131.987 36.096H129.987ZM130.866 48.5578C131.469 51.97 132.753 54.8103 134.758 57.0235L136.24 55.6805C134.534 53.7977 133.386 51.326 132.836 48.2102L130.866 48.5578ZM134.769 57.0352C136.869 59.2802 139.891 60.328 143.659 60.328V58.328C140.259 58.328 137.841 57.3918 136.23 55.6688L134.769 57.0352ZM143.659 60.328C147.427 60.328 150.449 59.2802 152.55 57.0352L151.089 55.6688C149.477 57.3918 147.059 58.328 143.659 58.328V60.328ZM152.56 57.0235C154.566 54.8103 155.85 51.97 156.452 48.5578L154.482 48.2102C153.933 51.326 152.785 53.7977 151.078 55.6805L152.56 57.0235ZM156.453 48.5545C157.042 45.1516 157.331 40.9946 157.331 36.096H155.331C155.331 40.9254 155.045 44.9604 154.482 48.2135L156.453 48.5545Z" fill="url(#paint0_linear_229_17052)"/>
<defs>
<linearGradient id="paint0_linear_229_17052" x1="236.945" y1="-19" x2="-11.3924" y2="83.063" gradientUnits="userSpaceOnUse">
<stop stop-color="#BB44F0"/>
<stop offset="0.450755" stop-color="#F974CC"/>
<stop offset="1" stop-color="#FFC9BB"/>
</linearGradient>
</defs>
</svg>
