<svg width="155" height="49" viewBox="0 0 155 49" fill="none" xmlns="http://www.w3.org/2000/svg">
<rect x="0.105469" width="154.895" height="49" rx="6.88421" fill="white"/>
<path d="M53.8609 18.1379H51.6323V11.2537H53.9315C54.606 11.2537 55.1853 11.3915 55.6694 11.6672C56.1534 11.9406 56.5243 12.3339 56.782 12.847C57.042 13.358 57.1719 13.9709 57.1719 14.6857C57.1719 15.4029 57.0408 16.0191 56.7786 16.5345C56.5187 17.05 56.1422 17.4466 55.6492 17.7245C55.1562 18.0001 54.5601 18.1379 53.8609 18.1379ZM52.671 17.2304H53.8038C54.3282 17.2304 54.764 17.1318 55.1114 16.9345C55.4587 16.7351 55.7187 16.4471 55.8912 16.0707C56.0638 15.6919 56.1501 15.2303 56.1501 14.6857C56.1501 14.1457 56.0638 13.6874 55.8912 13.3109C55.7209 12.9344 55.4666 12.6487 55.1282 12.4538C54.7898 12.2588 54.3696 12.1613 53.8677 12.1613H52.671V17.2304ZM60.5577 18.2421C60.0737 18.2421 59.6513 18.1312 59.2905 17.9094C58.9297 17.6875 58.6496 17.3771 58.4501 16.9782C58.2507 16.5794 58.151 16.1132 58.151 15.5799C58.151 15.0443 58.2507 14.5759 58.4501 14.1748C58.6496 13.7737 58.9297 13.4622 59.2905 13.2403C59.6513 13.0185 60.0737 12.9076 60.5577 12.9076C61.0418 12.9076 61.4642 13.0185 61.825 13.2403C62.1858 13.4622 62.4659 13.7737 62.6654 14.1748C62.8648 14.5759 62.9645 15.0443 62.9645 15.5799C62.9645 16.1132 62.8648 16.5794 62.6654 16.9782C62.4659 17.3771 62.1858 17.6875 61.825 17.9094C61.4642 18.1312 61.0418 18.2421 60.5577 18.2421ZM60.5611 17.3984C60.8748 17.3984 61.1348 17.3155 61.341 17.1497C61.5471 16.9838 61.6995 16.7631 61.7981 16.4875C61.8989 16.2118 61.9494 15.9082 61.9494 15.5765C61.9494 15.2471 61.8989 14.9446 61.7981 14.6689C61.6995 14.3911 61.5471 14.1681 61.341 14C61.1348 13.8319 60.8748 13.7479 60.5611 13.7479C60.2451 13.7479 59.9829 13.8319 59.7745 14C59.5684 14.1681 59.4149 14.3911 59.314 14.6689C59.2154 14.9446 59.1661 15.2471 59.1661 15.5765C59.1661 15.9082 59.2154 16.2118 59.314 16.4875C59.4149 16.7631 59.5684 16.9838 59.7745 17.1497C59.9829 17.3155 60.2451 17.3984 60.5611 17.3984ZM65.0486 18.1379L63.5292 12.9748H64.5679L65.5797 16.7665H65.6301L66.6453 12.9748H67.684L68.6924 16.7497H68.7428L69.7479 12.9748H70.7866L69.2706 18.1379H68.2453L67.1966 14.4101H67.1193L66.0705 18.1379H65.0486ZM72.7454 15.0723V18.1379H71.7404V12.9748H72.7051V13.8151H72.769C72.8877 13.5417 73.0737 13.3221 73.327 13.1563C73.5824 12.9905 73.904 12.9076 74.2917 12.9076C74.6435 12.9076 74.9517 12.9815 75.2161 13.1294C75.4805 13.2751 75.6856 13.4924 75.8312 13.7815C75.9769 14.0706 76.0497 14.428 76.0497 14.8538V18.1379H75.0447V14.9748C75.0447 14.6006 74.9472 14.3081 74.7522 14.0975C74.5573 13.8846 74.2895 13.7782 73.9488 13.7782C73.7158 13.7782 73.5085 13.8286 73.327 13.9294C73.1477 14.0303 73.0054 14.1782 72.9001 14.3731C72.797 14.5659 72.7454 14.7989 72.7454 15.0723ZM78.4027 11.2537V18.1379H77.3977V11.2537H78.4027ZM81.9297 18.2421C81.4457 18.2421 81.0233 18.1312 80.6625 17.9094C80.3017 17.6875 80.0215 17.3771 79.8221 16.9782C79.6227 16.5794 79.5229 16.1132 79.5229 15.5799C79.5229 15.0443 79.6227 14.5759 79.8221 14.1748C80.0215 13.7737 80.3017 13.4622 80.6625 13.2403C81.0233 13.0185 81.4457 12.9076 81.9297 12.9076C82.4138 12.9076 82.8362 13.0185 83.197 13.2403C83.5578 13.4622 83.8379 13.7737 84.0373 14.1748C84.2368 14.5759 84.3365 15.0443 84.3365 15.5799C84.3365 16.1132 84.2368 16.5794 84.0373 16.9782C83.8379 17.3771 83.5578 17.6875 83.197 17.9094C82.8362 18.1312 82.4138 18.2421 81.9297 18.2421ZM81.9331 17.3984C82.2468 17.3984 82.5068 17.3155 82.7129 17.1497C82.9191 16.9838 83.0715 16.7631 83.1701 16.4875C83.2709 16.2118 83.3213 15.9082 83.3213 15.5765C83.3213 15.2471 83.2709 14.9446 83.1701 14.6689C83.0715 14.3911 82.9191 14.1681 82.7129 14C82.5068 13.8319 82.2468 13.7479 81.9331 13.7479C81.6171 13.7479 81.3549 13.8319 81.1465 14C80.9403 14.1681 80.7868 14.3911 80.686 14.6689C80.5874 14.9446 80.5381 15.2471 80.5381 15.5765C80.5381 15.9082 80.5874 16.2118 80.686 16.4875C80.7868 16.7631 80.9403 16.9838 81.1465 17.1497C81.3549 17.3155 81.6171 17.3984 81.9331 17.3984ZM86.9609 18.2522C86.6338 18.2522 86.338 18.1917 86.0735 18.0707C85.8091 17.9475 85.5996 17.7693 85.4449 17.5362C85.2925 17.3032 85.2164 17.0175 85.2164 16.6791C85.2164 16.3878 85.2724 16.148 85.3844 15.9597C85.4965 15.7715 85.6477 15.6225 85.8382 15.5127C86.0287 15.4029 86.2416 15.3199 86.4769 15.2639C86.7122 15.2079 86.952 15.1653 87.1962 15.1362C87.5055 15.1003 87.7565 15.0712 87.9492 15.0488C88.1419 15.0241 88.282 14.9849 88.3694 14.9311C88.4568 14.8774 88.5005 14.79 88.5005 14.6689V14.6454C88.5005 14.3518 88.4176 14.1244 88.2517 13.963C88.0881 13.8017 87.8439 13.721 87.5189 13.721C87.1806 13.721 86.9139 13.7961 86.7189 13.9462C86.5262 14.0941 86.3929 14.2588 86.3189 14.4404L85.3743 14.2252C85.4864 13.9115 85.65 13.6583 85.8651 13.4656C86.0825 13.2706 86.3323 13.1294 86.6147 13.042C86.8971 12.9524 87.194 12.9076 87.5055 12.9076C87.7117 12.9076 87.9302 12.9322 88.161 12.9815C88.394 13.0286 88.6114 13.116 88.8131 13.2437C89.017 13.3714 89.184 13.5541 89.3139 13.7916C89.4439 14.0269 89.5089 14.3328 89.5089 14.7093V18.1379H88.5274V17.432H88.487C88.422 17.562 88.3246 17.6897 88.1946 17.8152C88.0646 17.9407 87.8977 18.0449 87.6937 18.1279C87.4898 18.2108 87.2455 18.2522 86.9609 18.2522ZM87.1794 17.4455C87.4573 17.4455 87.6948 17.3906 87.8921 17.2808C88.0915 17.171 88.2428 17.0275 88.3458 16.8505C88.4512 16.6712 88.5038 16.4796 88.5038 16.2757V15.6101C88.468 15.646 88.3985 15.6796 88.2954 15.711C88.1946 15.7401 88.0792 15.7659 87.9492 15.7883C87.8192 15.8085 87.6926 15.8275 87.5694 15.8454C87.4461 15.8611 87.343 15.8746 87.2601 15.8858C87.0651 15.9104 86.887 15.9519 86.7256 16.0102C86.5665 16.0684 86.4388 16.1525 86.3424 16.2623C86.2483 16.3698 86.2013 16.5132 86.2013 16.6925C86.2013 16.9413 86.2931 17.1295 86.4769 17.2572C86.6606 17.3827 86.8948 17.4455 87.1794 17.4455ZM92.7804 18.2388C92.3636 18.2388 91.9916 18.1323 91.6644 17.9194C91.3395 17.7043 91.084 17.3984 90.898 17.0018C90.7143 16.6029 90.6224 16.1244 90.6224 15.5664C90.6224 15.0084 90.7154 14.5311 90.9014 14.1345C91.0896 13.7378 91.3473 13.4342 91.6745 13.2235C92.0017 13.0129 92.3726 12.9076 92.7871 12.9076C93.1076 12.9076 93.3653 12.9613 93.5603 13.0689C93.7575 13.1742 93.9099 13.2975 94.0174 13.4387C94.1272 13.5798 94.2124 13.7042 94.2729 13.8118H94.3334V11.2537H95.3385V18.1379H94.3569V17.3346H94.2729C94.2124 17.4444 94.125 17.5699 94.0107 17.711C93.8987 17.8522 93.744 17.9755 93.5468 18.0808C93.3496 18.1861 93.0941 18.2388 92.7804 18.2388ZM93.0023 17.3816C93.2914 17.3816 93.5356 17.3054 93.7351 17.153C93.9367 16.9984 94.0891 16.7844 94.1922 16.511C94.2975 16.2376 94.3502 15.9194 94.3502 15.5564C94.3502 15.1978 94.2987 14.8841 94.1956 14.6152C94.0925 14.3462 93.9412 14.1367 93.7418 13.9866C93.5423 13.8364 93.2958 13.7614 93.0023 13.7614C92.6997 13.7614 92.4476 13.8398 92.2459 13.9967C92.0443 14.1535 91.8919 14.3675 91.7888 14.6387C91.6879 14.9098 91.6375 15.2157 91.6375 15.5564C91.6375 15.9015 91.6891 16.2118 91.7922 16.4875C91.8952 16.7631 92.0476 16.9816 92.2493 17.143C92.4532 17.3021 92.7042 17.3816 93.0023 17.3816ZM103.695 12.9748L101.823 18.1379H100.747L98.8713 12.9748H99.9503L101.258 16.948H101.312L102.616 12.9748H103.695ZM104.64 18.1379V12.9748H105.645V18.1379H104.64ZM105.147 12.1781C104.972 12.1781 104.822 12.1199 104.697 12.0033C104.573 11.8846 104.512 11.7434 104.512 11.5798C104.512 11.414 104.573 11.2728 104.697 11.1562C104.822 11.0375 104.972 10.9781 105.147 10.9781C105.322 10.9781 105.471 11.0375 105.594 11.1562C105.72 11.2728 105.782 11.414 105.782 11.5798C105.782 11.7434 105.72 11.8846 105.594 12.0033C105.471 12.1199 105.322 12.1781 105.147 12.1781ZM108.499 18.2522C108.172 18.2522 107.876 18.1917 107.612 18.0707C107.347 17.9475 107.138 17.7693 106.983 17.5362C106.831 17.3032 106.755 17.0175 106.755 16.6791C106.755 16.3878 106.811 16.148 106.923 15.9597C107.035 15.7715 107.186 15.6225 107.377 15.5127C107.567 15.4029 107.78 15.3199 108.015 15.2639C108.251 15.2079 108.49 15.1653 108.735 15.1362C109.044 15.1003 109.295 15.0712 109.488 15.0488C109.68 15.0241 109.82 14.9849 109.908 14.9311C109.995 14.8774 110.039 14.79 110.039 14.6689V14.6454C110.039 14.3518 109.956 14.1244 109.79 13.963C109.627 13.8017 109.382 13.721 109.057 13.721C108.719 13.721 108.452 13.7961 108.257 13.9462C108.065 14.0941 107.931 14.2588 107.857 14.4404L106.913 14.2252C107.025 13.9115 107.188 13.6583 107.403 13.4656C107.621 13.2706 107.871 13.1294 108.153 13.042C108.435 12.9524 108.732 12.9076 109.044 12.9076C109.25 12.9076 109.469 12.9322 109.699 12.9815C109.932 13.0286 110.15 13.116 110.351 13.2437C110.555 13.3714 110.722 13.5541 110.852 13.7916C110.982 14.0269 111.047 14.3328 111.047 14.7093V18.1379H110.066V17.432H110.025C109.96 17.562 109.863 17.6897 109.733 17.8152C109.603 17.9407 109.436 18.0449 109.232 18.1279C109.028 18.2108 108.784 18.2522 108.499 18.2522ZM108.718 17.4455C108.996 17.4455 109.233 17.3906 109.43 17.2808C109.63 17.171 109.781 17.0275 109.884 16.8505C109.99 16.6712 110.042 16.4796 110.042 16.2757V15.6101C110.006 15.646 109.937 15.6796 109.834 15.711C109.733 15.7401 109.618 15.7659 109.488 15.7883C109.358 15.8085 109.231 15.8275 109.108 15.8454C108.984 15.8611 108.881 15.8746 108.798 15.8858C108.604 15.9104 108.425 15.9519 108.264 16.0102C108.105 16.0684 107.977 16.1525 107.881 16.2623C107.787 16.3698 107.74 16.5132 107.74 16.6925C107.74 16.9413 107.832 17.1295 108.015 17.2572C108.199 17.3827 108.433 17.4455 108.718 17.4455Z" fill="#17161C"/>
<path d="M59.0528 29.0341C58.9662 28.7536 58.8467 28.5025 58.6944 28.2809C58.5454 28.0558 58.3653 27.8635 58.1541 27.7042C57.9463 27.5449 57.7073 27.4254 57.4372 27.3458C57.167 27.2627 56.8727 27.2211 56.554 27.2211C55.9826 27.2211 55.4735 27.3648 55.0267 27.6523C54.58 27.9397 54.2284 28.3623 53.9722 28.9198C53.7193 29.474 53.5929 30.1493 53.5929 30.9459C53.5929 31.7494 53.7193 32.4299 53.9722 32.9875C54.225 33.5451 54.5765 33.9693 55.0267 34.2602C55.477 34.5477 55.9999 34.6914 56.5956 34.6914C57.1359 34.6914 57.6034 34.5875 57.9982 34.3797C58.3965 34.1719 58.703 33.8775 58.9177 33.4966C59.1325 33.1122 59.2398 32.6619 59.2398 32.1459L59.6762 32.2134H56.7878V30.7069H61.1048V31.9849C61.1048 32.8957 60.9109 33.6836 60.523 34.3486C60.1351 35.0135 59.6017 35.5261 58.9229 35.8863C58.2441 36.243 57.4649 36.4213 56.5852 36.4213C55.6051 36.4213 54.7445 36.2014 54.0033 35.7616C53.2656 35.3183 52.689 34.6897 52.2734 33.8758C51.8613 33.0585 51.6552 32.0888 51.6552 30.9667C51.6552 30.1078 51.7764 29.3406 52.0189 28.6653C52.2648 27.99 52.6076 27.4168 53.0475 26.9458C53.4873 26.4713 54.0033 26.1111 54.5956 25.8652C55.1878 25.6159 55.8319 25.4912 56.5281 25.4912C57.1168 25.4912 57.6658 25.5778 58.1749 25.7509C58.684 25.9206 59.1359 26.1631 59.5307 26.4782C59.929 26.7934 60.2563 27.1674 60.5126 27.6003C60.7689 28.0332 60.9368 28.5112 61.0165 29.0341H59.0528ZM66.366 36.4317C65.5867 36.4317 64.9114 36.2603 64.34 35.9174C63.7685 35.5746 63.3252 35.0949 63.0101 34.4784C62.6984 33.862 62.5425 33.1416 62.5425 32.3173C62.5425 31.4931 62.6984 30.771 63.0101 30.151C63.3252 29.5311 63.7685 29.0497 64.34 28.7069C64.9114 28.364 65.5867 28.1926 66.366 28.1926C67.1452 28.1926 67.8206 28.364 68.392 28.7069C68.9635 29.0497 69.405 29.5311 69.7167 30.151C70.0319 30.771 70.1895 31.4931 70.1895 32.3173C70.1895 33.1416 70.0319 33.862 69.7167 34.4784C69.405 35.0949 68.9635 35.5746 68.392 35.9174C67.8206 36.2603 67.1452 36.4317 66.366 36.4317ZM66.3764 34.9252C66.7989 34.9252 67.1522 34.8092 67.4361 34.5771C67.7201 34.3416 67.9314 34.0265 68.0699 33.6317C68.2119 33.2368 68.2829 32.797 68.2829 32.3121C68.2829 31.8238 68.2119 31.3822 68.0699 30.9874C67.9314 30.5892 67.7201 30.2723 67.4361 30.0368C67.1522 29.8013 66.7989 29.6835 66.3764 29.6835C65.9435 29.6835 65.5833 29.8013 65.2958 30.0368C65.0118 30.2723 64.7988 30.5892 64.6568 30.9874C64.5183 31.3822 64.4491 31.8238 64.4491 32.3121C64.4491 32.797 64.5183 33.2368 64.6568 33.6317C64.7988 34.0265 65.0118 34.3416 65.2958 34.5771C65.5833 34.8092 65.9435 34.9252 66.3764 34.9252ZM75.2662 36.4317C74.487 36.4317 73.8116 36.2603 73.2402 35.9174C72.6687 35.5746 72.2254 35.0949 71.9103 34.4784C71.5986 33.862 71.4427 33.1416 71.4427 32.3173C71.4427 31.4931 71.5986 30.771 71.9103 30.151C72.2254 29.5311 72.6687 29.0497 73.2402 28.7069C73.8116 28.364 74.487 28.1926 75.2662 28.1926C76.0455 28.1926 76.7208 28.364 77.2922 28.7069C77.8637 29.0497 78.3053 29.5311 78.6169 30.151C78.9321 30.771 79.0897 31.4931 79.0897 32.3173C79.0897 33.1416 78.9321 33.862 78.6169 34.4784C78.3053 35.0949 77.8637 35.5746 77.2922 35.9174C76.7208 36.2603 76.0455 36.4317 75.2662 36.4317ZM75.2766 34.9252C75.6991 34.9252 76.0524 34.8092 76.3364 34.5771C76.6204 34.3416 76.8316 34.0265 76.9702 33.6317C77.1121 33.2368 77.1831 32.797 77.1831 32.3121C77.1831 31.8238 77.1121 31.3822 76.9702 30.9874C76.8316 30.5892 76.6204 30.2723 76.3364 30.0368C76.0524 29.8013 75.6991 29.6835 75.2766 29.6835C74.8437 29.6835 74.4835 29.8013 74.1961 30.0368C73.9121 30.2723 73.6991 30.5892 73.5571 30.9874C73.4185 31.3822 73.3493 31.8238 73.3493 32.3121C73.3493 32.797 73.4185 33.2368 73.5571 33.6317C73.6991 34.0265 73.9121 34.3416 74.1961 34.5771C74.4835 34.8092 74.8437 34.9252 75.2766 34.9252ZM84.1561 39.4344C83.4807 39.4344 82.9006 39.3426 82.4157 39.1591C81.9309 38.979 81.5413 38.7365 81.2469 38.4318C80.9525 38.127 80.7482 37.7893 80.6339 37.4188L82.3274 37.0084C82.4036 37.1642 82.5145 37.3183 82.6599 37.4707C82.8054 37.6266 83.001 37.7547 83.2469 37.8551C83.4963 37.959 83.8097 38.011 84.1872 38.011C84.7206 38.011 85.1621 37.8811 85.5119 37.6214C85.8617 37.3651 86.0366 36.9426 86.0366 36.3538V34.8421H85.9431C85.8461 35.036 85.7041 35.2352 85.5171 35.4395C85.3336 35.6438 85.0894 35.8153 84.7846 35.9538C84.4833 36.0923 84.1041 36.1616 83.6469 36.1616C83.0339 36.1616 82.4781 36.0179 81.9794 35.7304C81.4841 35.4395 81.0893 35.0066 80.7949 34.4317C80.504 33.8533 80.3586 33.1295 80.3586 32.2602C80.3586 31.384 80.504 30.6446 80.7949 30.042C81.0893 29.4359 81.4859 28.977 81.9846 28.6653C82.4833 28.3501 83.0391 28.1926 83.6521 28.1926C84.1197 28.1926 84.5041 28.2722 84.8054 28.4315C85.1102 28.5874 85.3526 28.7761 85.5327 28.9978C85.7128 29.216 85.8496 29.422 85.9431 29.616H86.047V28.2965H87.9016V36.4058C87.9016 37.088 87.7388 37.6525 87.4133 38.0993C87.0877 38.5461 86.6427 38.8803 86.0782 39.1019C85.5137 39.3236 84.873 39.4344 84.1561 39.4344ZM84.1716 34.6862C84.5699 34.6862 84.9093 34.5893 85.1898 34.3953C85.4704 34.2014 85.6834 33.9226 85.8288 33.5589C85.9743 33.1953 86.047 32.7589 86.047 32.2498C86.047 31.7476 85.9743 31.3078 85.8288 30.9303C85.6868 30.5528 85.4756 30.2601 85.195 30.0523C84.918 29.8411 84.5768 29.7355 84.1716 29.7355C83.7526 29.7355 83.4028 29.8445 83.1223 30.0627C82.8417 30.2809 82.6305 30.5805 82.4885 30.9615C82.3465 31.339 82.2755 31.7684 82.2755 32.2498C82.2755 32.7381 82.3465 33.1658 82.4885 33.533C82.6339 33.8966 82.8469 34.1806 83.1275 34.3849C83.4114 34.5858 83.7595 34.6862 84.1716 34.6862ZM91.7095 25.6366V36.2759H89.8289V25.6366H91.7095ZM97.1759 36.4317C96.3758 36.4317 95.6849 36.2655 95.1031 35.933C94.5247 35.5971 94.0797 35.1226 93.768 34.5096C93.4563 33.8931 93.3004 33.1676 93.3004 32.3329C93.3004 31.5121 93.4563 30.7918 93.768 30.1718C94.0831 29.5484 94.523 29.0636 95.0875 28.7172C95.652 28.3675 96.3152 28.1926 97.0772 28.1926C97.569 28.1926 98.033 28.2722 98.4694 28.4315C98.9092 28.5874 99.2971 28.8298 99.6331 29.1588C99.9725 29.4878 100.239 29.9069 100.433 30.416C100.627 30.9216 100.724 31.5242 100.724 32.2238V32.8005H94.1836V31.5329H98.9214C98.9179 31.1727 98.84 30.8524 98.6876 30.5718C98.5352 30.2878 98.3222 30.0645 98.0486 29.9017C97.7785 29.7389 97.4633 29.6575 97.1031 29.6575C96.7187 29.6575 96.381 29.751 96.0901 29.9381C95.7992 30.1216 95.5724 30.364 95.4096 30.6653C95.2503 30.9632 95.1689 31.2905 95.1654 31.6472V32.7537C95.1654 33.2178 95.2503 33.6161 95.42 33.9485C95.5897 34.2776 95.8269 34.5304 96.1317 34.707C96.4365 34.8802 96.7932 34.9668 97.2018 34.9668C97.4754 34.9668 97.7231 34.9287 97.9447 34.8525C98.1664 34.7728 98.3586 34.6568 98.5214 34.5044C98.6841 34.352 98.8071 34.1633 98.8902 33.9382L100.646 34.1356C100.535 34.5996 100.324 35.0049 100.012 35.3512C99.7041 35.694 99.3093 35.9607 98.8279 36.1512C98.3465 36.3382 97.7958 36.4317 97.1759 36.4317ZM106.027 36.2759V25.6366H110.016C110.834 25.6366 111.52 25.789 112.074 26.0938C112.631 26.3986 113.052 26.8176 113.336 27.351C113.623 27.8809 113.767 28.4835 113.767 29.1588C113.767 29.8411 113.623 30.4472 113.336 30.977C113.049 31.5069 112.624 31.9243 112.063 32.229C111.502 32.5303 110.811 32.681 109.99 32.681H107.346V31.0965H109.731C110.209 31.0965 110.6 31.0134 110.905 30.8472C111.21 30.6809 111.435 30.4524 111.58 30.1614C111.729 29.8705 111.804 29.5363 111.804 29.1588C111.804 28.7813 111.729 28.4488 111.58 28.1614C111.435 27.8739 111.208 27.6505 110.9 27.4912C110.595 27.3285 110.202 27.2471 109.72 27.2471H107.954V36.2759H106.027ZM117.239 25.6366V36.2759H115.358V25.6366H117.239ZM121.469 36.4369C120.963 36.4369 120.508 36.3469 120.102 36.1668C119.701 35.9832 119.382 35.7131 119.147 35.3564C118.915 34.9997 118.798 34.5598 118.798 34.0369C118.798 33.5866 118.882 33.2143 119.048 32.9199C119.214 32.6256 119.441 32.3901 119.728 32.2134C120.016 32.0368 120.34 31.9035 120.7 31.8134C121.063 31.7199 121.439 31.6524 121.827 31.6108C122.295 31.5623 122.674 31.519 122.965 31.481C123.256 31.4394 123.467 31.3771 123.599 31.2939C123.734 31.2074 123.801 31.074 123.801 30.8939V30.8628C123.801 30.4714 123.685 30.1684 123.453 29.9536C123.221 29.7389 122.887 29.6316 122.451 29.6316C121.99 29.6316 121.625 29.732 121.354 29.9329C121.088 30.1337 120.908 30.371 120.814 30.6446L119.058 30.3952C119.197 29.9103 119.425 29.5051 119.744 29.1796C120.063 28.8506 120.452 28.6047 120.913 28.4419C121.373 28.2757 121.883 28.1926 122.44 28.1926C122.825 28.1926 123.207 28.2376 123.588 28.3276C123.969 28.4177 124.317 28.5666 124.632 28.7744C124.948 28.9787 125.2 29.2575 125.391 29.6108C125.585 29.964 125.682 30.4056 125.682 30.9355V36.2759H123.874V35.1797H123.812C123.697 35.4014 123.536 35.6092 123.328 35.8031C123.124 35.9936 122.866 36.1477 122.554 36.2655C122.246 36.3798 121.884 36.4369 121.469 36.4369ZM121.957 35.0551C122.335 35.0551 122.662 34.9806 122.939 34.8317C123.216 34.6793 123.429 34.4784 123.578 34.2291C123.73 33.9797 123.806 33.7078 123.806 33.4135V32.4732C123.748 32.5217 123.647 32.5667 123.505 32.6083C123.367 32.6498 123.211 32.6862 123.038 32.7173C122.864 32.7485 122.693 32.7762 122.523 32.8005C122.354 32.8247 122.206 32.8455 122.082 32.8628C121.801 32.9009 121.55 32.9632 121.328 33.0498C121.107 33.1364 120.932 33.2576 120.804 33.4135C120.676 33.5659 120.612 33.7633 120.612 34.0057C120.612 34.352 120.738 34.6135 120.991 34.7901C121.244 34.9668 121.566 35.0551 121.957 35.0551ZM128.456 39.2682C128.2 39.2682 127.962 39.2474 127.744 39.2058C127.529 39.1677 127.358 39.1227 127.23 39.0708L127.666 37.6058C127.94 37.6854 128.184 37.7235 128.399 37.7201C128.613 37.7166 128.802 37.6491 128.965 37.5175C129.131 37.3893 129.271 37.1746 129.386 36.8733L129.547 36.4421L126.653 28.2965H128.648L130.487 34.3226H130.57L132.414 28.2965H134.414L131.22 37.2421C131.071 37.6647 130.873 38.0266 130.627 38.3279C130.381 38.6326 130.08 38.8647 129.723 39.024C129.37 39.1868 128.948 39.2682 128.456 39.2682Z" fill="#17161C"/>
<path d="M34.0473 27.6301C36.7759 26.1586 38.8443 25.0374 39.0226 24.9502C39.593 24.6523 40.182 23.8639 39.0226 23.2515C38.6483 23.0589 36.633 21.9726 34.0473 20.5717L30.4629 24.127L34.0473 27.63V27.6301Z" fill="#FFD900"/>
<path d="M30.4631 24.1271L19.0498 35.4246C19.3177 35.4594 19.6201 35.3897 19.9767 35.1971C20.7254 34.7947 28.6615 30.5381 34.0475 27.6309L30.4631 24.1271Z" fill="#F43249"/>
<path d="M30.4632 24.127L34.0477 20.5891C34.0477 20.5891 20.7796 13.4775 19.9769 13.0577C19.6744 12.8817 19.3355 12.8295 19.0322 12.8817L30.4632 24.127Z" fill="#00EE76"/>
<path d="M30.4628 24.127L19.0318 12.8817C18.5678 12.9871 18.1758 13.3896 18.1758 14.2129V34.0933C18.1758 34.8468 18.4791 35.3896 19.0495 35.4419L30.4628 24.127Z" fill="#00D3FF"/>
</svg>
