<svg width="111" height="73" viewBox="0 0 111 73" fill="none" xmlns="http://www.w3.org/2000/svg">
<path d="M35.376 19.488L34.4032 19.7196L34.5861 20.488H35.376V19.488ZM32.016 13.44L31.3575 14.1926L31.3651 14.1992L31.3728 14.2057L32.016 13.44ZM15.504 16.8L14.6424 16.2923L14.6397 16.2971L15.504 16.8ZM12.336 34.08L11.336 34.072L11.3067 37.7392L13.1935 34.5945L12.336 34.08ZM19.056 28.128L19.4875 29.0301L19.4954 29.0263L19.5032 29.0224L19.056 28.128ZM39.696 28.608L39.2074 29.4805L39.696 28.608ZM47.184 36.48L46.2962 36.9403L46.2998 36.9471L47.184 36.48ZM47.088 60.96L46.2 60.5001L46.1968 60.5063L47.088 60.96ZM39.12 69.216L39.611 70.0872L39.12 69.216ZM10.8 67.776L10.1851 68.5647L10.1916 68.5696L10.8 67.776ZM2.832 55.488L1.86832 55.755L1.87024 55.762L1.87226 55.7689L2.832 55.488ZM6.672 9.408L7.49993 9.96885L7.50269 9.96474L6.672 9.408ZM41.424 5.856L40.7231 6.56923H40.7231L41.424 5.856ZM47.856 19.488V20.488H48.9675L48.8504 19.3827L47.856 19.488ZM17.04 39.936L16.3875 39.1782L17.04 39.936ZM16.752 57.504L16.0344 58.2005L16.0396 58.2058L16.0449 58.2111L16.752 57.504ZM34.032 57.6L33.3141 56.9039L33.3086 56.9095L33.3032 56.9153L34.032 57.6ZM34.128 40.224L33.3782 40.8856L33.3836 40.8917L33.389 40.8978L34.128 40.224ZM36.3488 19.2564C35.675 16.4265 34.4694 14.1949 32.6592 12.6743L31.3728 14.2057C32.7626 15.3731 33.797 17.1735 34.4032 19.7196L36.3488 19.2564ZM32.6745 12.6874C30.89 11.126 28.3768 10.424 25.296 10.424V12.424C28.1032 12.424 30.07 13.066 31.3575 14.1926L32.6745 12.6874ZM25.296 10.424C20.5525 10.424 16.9473 12.381 14.6425 16.2923L16.3655 17.3077C18.2847 14.051 21.2075 12.424 25.296 12.424V10.424ZM14.6397 16.2971C12.4542 20.0534 11.4003 26.036 11.336 34.072L13.336 34.088C13.3997 26.124 14.4578 20.5866 16.3683 17.3029L14.6397 16.2971ZM13.1935 34.5945C14.6192 32.2183 16.7032 30.3617 19.4875 29.0301L18.6245 27.2259C15.5208 28.7103 13.1248 30.8217 11.4785 33.5655L13.1935 34.5945ZM19.5032 29.0224C22.3014 27.6233 25.3473 26.92 28.656 26.92V24.92C25.0527 24.92 21.6986 25.6887 18.6088 27.2336L19.5032 29.0224ZM28.656 26.92C32.6682 26.92 36.1758 27.7828 39.2074 29.4805L40.1846 27.7355C36.8162 25.8492 32.9638 24.92 28.656 24.92V26.92ZM39.2074 29.4805C42.2263 31.1711 44.5884 33.6466 46.2962 36.9403L48.0718 36.0197C46.1956 32.4014 43.5657 29.6289 40.1846 27.7355L39.2074 29.4805ZM46.2998 36.9471C47.999 40.1634 48.872 44.0907 48.872 48.768H50.872C50.872 43.8453 49.953 39.5806 48.0682 36.0129L46.2998 36.9471ZM48.872 48.768C48.872 53.1723 47.9736 57.0753 46.2 60.5001L47.976 61.4199C49.9144 57.6767 50.872 53.4517 50.872 48.768H48.872ZM46.1968 60.5063C44.4964 63.8466 41.9816 66.4552 38.629 68.3448L39.611 70.0872C43.2984 68.0088 46.0957 65.1134 47.9792 61.4137L46.1968 60.5063ZM38.629 68.3448C35.2866 70.2287 31.271 71.192 26.544 71.192V73.192C31.545 73.192 35.9134 72.1713 39.611 70.0872L38.629 68.3448ZM26.544 71.192C20.0266 71.192 15.0187 69.7503 11.4084 66.9824L10.1916 68.5696C14.2613 71.6897 19.7494 73.192 26.544 73.192V71.192ZM11.4149 66.9874C7.82704 64.1901 5.27754 60.2836 3.79174 55.2071L1.87226 55.7689C3.45846 61.1884 6.22096 65.4739 10.1851 68.5646L11.4149 66.9874ZM3.79568 55.221C2.35532 50.0231 1.624 43.5911 1.624 35.904H-0.375999C-0.375999 43.7048 0.364684 50.3289 1.86832 55.755L3.79568 55.221ZM1.624 35.904C1.624 24.2776 3.63049 15.6809 7.49992 9.96885L5.84408 8.84715C1.64951 15.0391 -0.375999 24.1064 -0.375999 35.904H1.624ZM7.50269 9.96474C11.3098 4.28428 17.3283 1.384 25.776 1.384V-0.616005C16.8157 -0.616005 10.0982 2.49971 5.84131 8.85126L7.50269 9.96474ZM25.776 1.384C32.3134 1.384 37.248 3.15412 40.7231 6.56923L42.1249 5.14277C38.176 1.26188 32.6786 -0.616005 25.776 -0.616005V1.384ZM40.7231 6.56923C44.2608 10.046 46.3086 14.3711 46.8616 19.5933L48.8504 19.3827C48.2514 13.7249 46.0112 8.96202 42.1249 5.14277L40.7231 6.56923ZM47.856 18.488H35.376V20.488H47.856V18.488ZM25.584 35.96C21.9821 35.96 18.8942 37.0196 16.3875 39.1782L17.6925 40.6938C19.7938 38.8844 22.4019 37.96 25.584 37.96V35.96ZM16.3875 39.1782C13.8109 41.3969 12.584 44.5853 12.584 48.576H14.584C14.584 45.0147 15.6611 42.4431 17.6925 40.6938L16.3875 39.1782ZM12.584 48.576C12.584 52.5449 13.6994 55.7947 16.0344 58.2005L17.4696 56.8075C15.5806 54.8613 14.584 52.1591 14.584 48.576H12.584ZM16.0449 58.2111C18.4555 60.6217 21.7777 61.768 25.872 61.768V59.768C22.1583 59.768 19.4005 58.7383 17.4591 56.7969L16.0449 58.2111ZM25.872 61.768C29.5465 61.768 32.5517 60.6363 34.7608 58.2847L33.3032 56.9153C31.5443 58.7877 29.1096 59.768 25.872 59.768V61.768ZM34.7499 58.2961C37.0168 55.9585 38.104 52.8398 38.104 49.056H36.104C36.104 52.4402 35.1432 55.0175 33.3141 56.9039L34.7499 58.2961ZM38.104 49.056C38.104 45.1622 37.0594 41.9549 34.867 39.5502L33.389 40.8978C35.1646 42.8451 36.104 45.5258 36.104 49.056H38.104ZM34.8778 39.5624C32.7147 37.1108 29.555 35.96 25.584 35.96V37.96C29.165 37.96 31.7013 38.9852 33.3782 40.8856L34.8778 39.5624ZM65.0062 10.08L64.1651 9.53922L64.1612 9.54535L65.0062 10.08ZM104.846 10.08L104.001 10.6147L104.005 10.6208L104.846 10.08ZM104.846 62.304L104.003 61.7671L103.999 61.7732L104.846 62.304ZM65.0062 62.304L64.1587 62.8348L64.1626 62.8409L65.0062 62.304ZM96.6863 24.192L95.7015 24.3658L95.7034 24.377L95.7057 24.3881L96.6863 24.192ZM93.0383 16.224L92.2857 16.8825L92.2914 16.8891L92.2973 16.8955L93.0383 16.224ZM76.8143 16.224L76.0733 15.5525L76.0674 15.5589L76.0617 15.5655L76.8143 16.224ZM73.1663 24.192L72.1849 23.9996L72.1834 24.0072L72.1821 24.0148L73.1663 24.192ZM73.1663 48.384L72.1809 48.5545L72.1815 48.5578L73.1663 48.384ZM76.8143 56.352L76.0733 57.0235L76.0786 57.0294L76.084 57.0352L76.8143 56.352ZM93.1343 56.352L93.8645 57.0352L93.8699 57.0294L93.8752 57.0235L93.1343 56.352ZM96.7822 48.384L97.767 48.5578L97.7676 48.5545L96.7822 48.384ZM60.0543 36.096C60.0543 25.1262 62.0227 16.6663 65.8513 10.6146L64.1612 9.54535C60.0538 16.0377 58.0543 24.9218 58.0543 36.096H60.0543ZM65.8474 10.6208C69.6493 4.70674 75.9394 1.672 84.9743 1.672V-0.328003C75.4491 -0.328003 68.4272 2.90926 64.1651 9.53924L65.8474 10.6208ZM84.9743 1.672C94.0097 1.672 100.263 4.70665 104.001 10.6146L105.691 9.54535C101.493 2.90934 94.4988 -0.328003 84.9743 -0.328003V1.672ZM104.005 10.6208C107.895 16.6711 109.894 25.1285 109.894 36.096H111.894C111.894 24.9195 109.862 16.0329 105.687 9.53924L104.005 10.6208ZM109.894 36.096C109.894 47.128 107.894 55.6514 104.003 61.7671L105.69 62.8409C109.862 56.2846 111.894 47.336 111.894 36.096H109.894ZM103.999 61.7732C100.259 67.7446 94.0053 70.808 84.9743 70.808V72.808C94.5032 72.808 101.497 69.5354 105.694 62.8348L103.999 61.7732ZM84.9743 70.808C75.9437 70.808 69.6537 67.7445 65.8499 61.7671L64.1626 62.8409C68.4228 69.5356 75.4448 72.808 84.9743 72.808V70.808ZM65.8538 61.7732C62.0229 55.6561 60.0543 47.1302 60.0543 36.096H58.0543C58.0543 47.3338 60.0536 56.2799 64.1587 62.8348L65.8538 61.7732ZM98.6463 36.096C98.6463 31.3208 98.3241 27.2822 97.6668 23.9959L95.7057 24.3881C96.3284 27.5018 96.6463 31.3992 96.6463 36.096H98.6463ZM97.671 24.0182C97.0689 20.6059 95.785 17.7657 93.7792 15.5525L92.2973 16.8955C94.0035 18.7783 95.1516 21.25 95.7015 24.3658L97.671 24.0182ZM93.7908 15.5655C91.7533 13.2369 88.7497 12.152 84.9743 12.152V14.152C88.3668 14.152 90.7392 15.1151 92.2857 16.8825L93.7908 15.5655ZM84.9743 12.152C81.1967 12.152 78.1712 13.2375 76.0733 15.5525L77.5552 16.8955C79.1693 15.1145 81.5838 14.152 84.9743 14.152V12.152ZM76.0617 15.5655C74.1305 17.7725 72.8513 20.601 72.1849 23.9996L74.1476 24.3844C74.7612 21.255 75.914 18.7715 77.5668 16.8825L76.0617 15.5655ZM72.1821 24.0148C71.592 27.2931 71.3023 31.3249 71.3023 36.096H73.3023C73.3023 31.3951 73.5885 27.4909 74.1504 24.3692L72.1821 24.0148ZM71.3023 36.096C71.3023 40.9946 71.5919 45.1516 72.1809 48.5545L74.1516 48.2135C73.5886 44.9604 73.3023 40.9254 73.3023 36.096H71.3023ZM72.1815 48.5578C72.7836 51.97 74.0675 54.8103 76.0733 57.0235L77.5552 55.6805C75.849 53.7977 74.7009 51.326 74.151 48.2102L72.1815 48.5578ZM76.084 57.0352C78.1842 59.2802 81.2061 60.328 84.9743 60.328V58.328C81.5744 58.328 79.1563 57.3918 77.5445 55.6688L76.084 57.0352ZM84.9743 60.328C88.7424 60.328 91.7643 59.2802 93.8645 57.0352L92.404 55.6688C90.7922 57.3918 88.3741 58.328 84.9743 58.328V60.328ZM93.8752 57.0235C95.881 54.8103 97.1649 51.97 97.767 48.5578L95.7975 48.2102C95.2476 51.326 94.0995 53.7977 92.3933 55.6805L93.8752 57.0235ZM97.7676 48.5545C98.3566 45.1516 98.6463 40.9946 98.6463 36.096H96.6463C96.6463 40.9254 96.3599 44.9604 95.7969 48.2135L97.7676 48.5545Z" fill="url(#paint0_linear_229_17057)"/>
<defs>
<linearGradient id="paint0_linear_229_17057" x1="159.565" y1="-19" x2="-25.1696" y2="33.1708" gradientUnits="userSpaceOnUse">
<stop stop-color="#BB44F0"/>
<stop offset="0.450755" stop-color="#F974CC"/>
<stop offset="1" stop-color="#FFC9BB"/>
</linearGradient>
</defs>
</svg>
