<svg width="34" height="32" viewBox="0 0 34 32" fill="none" xmlns="http://www.w3.org/2000/svg">
<path fill-rule="evenodd" clip-rule="evenodd" d="M9.88519 30.7211C9.04007 31.1623 8.01767 31.0846 7.24889 30.5208C6.48011 29.9571 6.09868 29.0053 6.26535 28.0667L7.61425 20.3351L1.93522 14.8929C1.24105 14.2309 0.986653 13.2302 1.28038 12.3171C1.5741 11.4039 2.3642 10.7392 3.31412 10.6061L11.1991 9.47895L14.7589 2.37766C15.181 1.526 16.0493 0.987213 16.9998 0.987213C17.9503 0.987213 18.8187 1.526 19.2408 2.37766L22.8006 9.47895L30.6855 10.6061C31.6355 10.7392 32.4255 11.4039 32.7193 12.3171C33.013 13.2302 32.7586 14.2309 32.0644 14.8929L26.3854 20.3351L27.7343 28.0684C27.901 29.007 27.5195 29.9588 26.7508 30.5225C25.982 31.0863 24.9596 31.1639 24.1145 30.7228L16.9998 27.0463L9.88519 30.7211Z" stroke="url(#paint0_linear_650_3205)" stroke-width="1.5" stroke-linecap="round" stroke-linejoin="round"/>
<defs>
<linearGradient id="paint0_linear_650_3205" x1="43.8025" y1="0.98721" x2="-3.87044" y2="14.2708" gradientUnits="userSpaceOnUse">
<stop stop-color="#BB44F0"/>
<stop offset="0.450755" stop-color="#F974CC"/>
<stop offset="1" stop-color="#FFC9BB"/>
</linearGradient>
</defs>
</svg>
